<svg xmlns:xlink="http://www.w3.org/1999/xlink" width="65" xmlns="http://www.w3.org/2000/svg" height="65" id="screenshot-34ed21c6-cc6f-8096-8003-4c714674a94a" viewBox="0 0 65 65" style="-webkit-print-color-adjust: exact;" fill="none" version="1.1"><g id="shape-34ed21c6-cc6f-8096-8003-4c714674a94a" height="512" width="512" rx="0" ry="0" style="fill: rgb(0, 0, 0);"><g id="shape-34ed21c6-cc6f-8096-8003-4c714674a94b"><g class="fills" id="fills-34ed21c6-cc6f-8096-8003-4c714674a94b"><rect width="65" height="65" x="0" transform="matrix(1.000000, 0.000000, 0.000000, 1.000000, 0.000000, 0.000000)" style="fill: none;" ry="0" fill="none" rx="0" shape-rendering="auto" y="0"/></g></g><g id="shape-34ed21c6-cc6f-8096-8003-4c714674a94c" mask="url(#rumext-id-3-viewboxMask)" rx="0" ry="0" style="fill: rgb(0, 0, 0);"><defs><mask width="144" height="144" x="-12" id="rumext-id-3-viewboxMask" data-old-y="-12" data-old-width="144" data-old-x="-12" y="-12" data-old-height="144"><g class="svg-mask-wrapper" transform="matrix(0.541667, 0.000000, 0.000000, 0.541667, 0.000000, 0.000000)"><rect width="120" height="120" rx="0" ry="0" x="0" y="0" fill="#fff"/></g></mask></defs><g id="shape-34ed21c6-cc6f-8096-8003-4c714674a94d"><g class="fills" id="fills-34ed21c6-cc6f-8096-8003-4c714674a94d"><rect width="65" height="65" x="0" transform="matrix(1.000000, 0.000000, 0.000000, 1.000000, 0.000000, 0.000000)" style="fill: rgb(255, 179, 0);" ry="0" rx="0" shape-rendering="auto" y="0"/></g></g><g id="shape-34ed21c6-cc6f-8096-8003-4c714674a94e" rx="0" ry="0" style="fill: rgb(0, 0, 0);"><g id="shape-34ed21c6-cc6f-8096-8003-4c714674a950"><g class="fills" id="fills-34ed21c6-cc6f-8096-8003-4c714674a950"><rect width="14.625" height="4.333333333333485" x="24.91666666666697" transform="matrix(1.000000, 0.000000, 0.000000, 1.000000, 0.000000, 0.000000)" style="fill: rgb(0, 0, 0); fill-opacity: 0.8;" ry="2.1666666666667425" rx="2.1666666666667425" shape-rendering="auto" y="40.08333333333303"/></g></g></g><g id="shape-34ed21c6-cc6f-8096-8003-4c714674a94f" rx="0" ry="0" style="fill: rgb(0, 0, 0);"><g id="shape-34ed21c6-cc6f-8096-8003-4c714674a951"><g class="fills" id="fills-34ed21c6-cc6f-8096-8003-4c714674a951"><rect width="47.666666666666515" height="19.5" x="8.66666666666697" transform="matrix(1.000000, 0.000000, 0.000000, 1.000000, 0.000000, 0.000000)" style="fill: rgb(0, 0, 0); fill-opacity: 0.8;" ry="4" rx="4" shape-rendering="auto" y="16.25"/></g></g><g id="shape-34ed21c6-cc6f-8096-8003-4c714674a952"><g class="fills" id="fills-34ed21c6-cc6f-8096-8003-4c714674a952"><rect width="5.41666666666697" height="9.208333333333258" x="19.5" transform="matrix(1.000000, 0.000000, 0.000000, 1.000000, 0.000000, 0.000000)" style="fill: rgb(94, 242, 184);" ry="2" rx="2" shape-rendering="auto" y="22.208333333333258"/></g></g><g id="shape-34ed21c6-cc6f-8096-8003-4c714674a953"><g class="fills" id="fills-34ed21c6-cc6f-8096-8003-4c714674a953"><rect width="5.41666666666606" height="9.208333333333258" x="40.08333333333394" transform="matrix(1.000000, 0.000000, 0.000000, 1.000000, 0.000000, 0.000000)" style="fill: rgb(94, 242, 184);" ry="2" rx="2" shape-rendering="auto" y="22.208333333333258"/></g></g><g id="shape-34ed21c6-cc6f-8096-8003-4c714674a954"><g class="fills" id="fills-34ed21c6-cc6f-8096-8003-4c714674a954"><path shape-rendering="auto" fill-rule="evenodd" clip-rule="evenodd" rx="0" ry="0" d="M49.292,16.250L52.000,16.250L45.500,35.750L42.792,35.750L49.292,16.250ZZ" style="fill: rgb(255, 255, 255); fill-opacity: 0.4;"/></g></g></g></g></g></svg>