<svg xmlns:xlink="http://www.w3.org/1999/xlink" width="60.9" xmlns="http://www.w3.org/2000/svg" height="60.9" id="screenshot-78e41ac3-ebc2-807c-8003-c43e95307564" viewBox="0 0 60.9 60.9" style="-webkit-print-color-adjust: exact;" fill="none" version="1.1"><g id="shape-78e41ac3-ebc2-807c-8003-c43e95307564" rx="0" ry="0" style="fill: rgb(0, 0, 0);"><g id="shape-78e41ac3-ebc2-807c-8003-c43e95307566" rx="0" ry="0" style="fill: rgb(0, 0, 0);"><g id="shape-78e41ac3-ebc2-807c-8003-c43e9530756c"><g class="fills" id="fills-78e41ac3-ebc2-807c-8003-c43e9530756c"><path rx="0" ry="0" d="M11.711,23.627C11.711,23.627,9.979,22.385,11.202,20.985C11.202,20.985,9.274,19.282,10.839,17.682C10.839,17.682,9.792,14.237,12.648,14.038C12.648,14.038,12.318,10.593,16.098,10.994C16.098,10.994,18.214,9.470,19.783,11.205C19.783,11.205,21.925,9.845,23.033,11.545" style="fill: rgb(210, 47, 39);"/></g></g><g id="shape-78e41ac3-ebc2-807c-8003-c43e9530756d"><g class="fills" id="fills-78e41ac3-ebc2-807c-8003-c43e9530756d"><path rx="0" ry="0" d="M49.189,23.627C49.189,23.627,50.921,22.385,49.698,20.985C49.698,20.985,51.626,19.282,50.061,17.682C50.061,17.682,51.108,14.237,48.252,14.038C48.252,14.038,48.582,10.593,44.802,10.994C44.802,10.994,42.686,9.470,41.117,11.205C41.117,11.205,38.975,9.845,37.867,11.545" style="fill: rgb(210, 47, 39);"/></g></g><g id="shape-78e41ac3-ebc2-807c-8003-c43e9530756e"><g class="fills" id="fills-78e41ac3-ebc2-807c-8003-c43e9530756e"><ellipse rx="19.454166666666424" ry="19.45416666666665" cx="30.450000000000728" cy="30.45000000000016" transform="matrix(1.000000, 0.000000, 0.000000, 1.000000, 0.000000, 0.000000)" style="fill: rgb(255, 255, 255);"/></g></g><g id="shape-78e41ac3-ebc2-807c-8003-c43e9530756f"><g class="fills" id="fills-78e41ac3-ebc2-807c-8003-c43e9530756f"><path rx="0" ry="0" d="M42.128,39.370C42.128,39.370,40.792,46.501,30.447,46.780C20.145,46.408,18.766,39.370,18.766,39.370C18.377,37.907,17.718,34.498,20.695,36.148C22.979,37.417,25.246,39.844,30.447,39.996C35.658,39.844,37.916,37.417,40.200,36.148C43.177,34.498,42.526,37.907,42.128,39.370ZZ" style="fill: rgb(210, 47, 39);"/></g></g><g id="shape-78e41ac3-ebc2-807c-8003-c43e95307570"><g class="fills" id="fills-78e41ac3-ebc2-807c-8003-c43e95307570"><path rx="0" ry="0" d="M30.448,44.605C25.321,44.605,22.049,41.805,21.219,40.447C20.389,39.090,21.685,39.470,21.952,39.599C23.909,40.543,25.370,41.881,30.448,42.055M30.448,44.605C35.576,44.605,38.847,41.805,39.678,40.447C40.508,39.090,39.212,39.470,38.945,39.599C36.988,40.543,35.527,41.881,30.448,42.055" style="fill: rgb(255, 255, 255);"/></g></g></g><g id="shape-78e41ac3-ebc2-807c-8003-c43e95307567" rx="0" ry="0" style="fill: rgb(0, 0, 0);"/><g id="shape-78e41ac3-ebc2-807c-8003-c43e95307568" rx="0" ry="0" style="fill: rgb(0, 0, 0);"/><g id="shape-78e41ac3-ebc2-807c-8003-c43e95307569" rx="0" ry="0" style="fill: rgb(0, 0, 0);"/><g id="shape-78e41ac3-ebc2-807c-8003-c43e9530756a" rx="0" ry="0" style="fill: rgb(0, 0, 0);"><g id="shape-78e41ac3-ebc2-807c-8003-c43e95307571"><g class="fills" id="fills-78e41ac3-ebc2-807c-8003-c43e95307571"><path fill="none" stroke-linecap="round" stroke-linejoin="round" stroke-miterlimit="10" rx="0" ry="0" d="M19.829,17.910C22.281,16.596,25.068,16.546,27.150,17.910" style="fill: none;"/></g><g id="strokes-78e41ac3-ebc2-807c-8003-c43e95307571" class="strokes"><g class="stroke-shape"><path stroke-linecap="round" stroke-linejoin="round" stroke-miterlimit="10" rx="0" ry="0" d="M19.829,17.910C22.281,16.596,25.068,16.546,27.150,17.910" style="fill: none; stroke-width: 1.73844; stroke: rgb(0, 0, 0); stroke-opacity: 1;"/></g></g></g><g id="shape-78e41ac3-ebc2-807c-8003-c43e95307572"><g class="fills" id="fills-78e41ac3-ebc2-807c-8003-c43e95307572"><path fill="none" stroke-linecap="round" stroke-linejoin="round" stroke-miterlimit="10" rx="0" ry="0" d="M33.750,17.910C36.202,16.596,38.988,16.546,41.071,17.910" style="fill: none;"/></g><g id="strokes-78e41ac3-ebc2-807c-8003-c43e95307572" class="strokes"><g class="stroke-shape"><path stroke-linecap="round" stroke-linejoin="round" stroke-miterlimit="10" rx="0" ry="0" d="M33.750,17.910C36.202,16.596,38.988,16.546,41.071,17.910" style="fill: none; stroke-width: 1.73844; stroke: rgb(0, 0, 0); stroke-opacity: 1;"/></g></g></g><g id="shape-78e41ac3-ebc2-807c-8003-c43e95307573"><g class="fills" id="fills-78e41ac3-ebc2-807c-8003-c43e95307573"><path fill="none" stroke-linecap="round" stroke-linejoin="round" stroke-miterlimit="10" rx="0" ry="0" d="M42.129,39.370C42.129,39.370,40.793,46.501,30.448,46.780C20.146,46.408,18.767,39.370,18.767,39.370C18.378,37.907,17.718,34.498,20.696,36.148C22.979,37.417,25.246,39.844,30.448,39.996C35.658,39.844,37.917,37.417,40.201,36.148C43.178,34.498,42.527,37.907,42.129,39.370ZZ" style="fill: none;"/></g><g id="strokes-78e41ac3-ebc2-807c-8003-c43e95307573" class="strokes"><g class="stroke-shape"><path stroke-linecap="round" stroke-linejoin="round" stroke-miterlimit="10" rx="0" ry="0" d="M42.129,39.370C42.129,39.370,40.793,46.501,30.448,46.780C20.146,46.408,18.767,39.370,18.767,39.370C18.378,37.907,17.718,34.498,20.696,36.148C22.979,37.417,25.246,39.844,30.448,39.996C35.658,39.844,37.917,37.417,40.201,36.148C43.178,34.498,42.527,37.907,42.129,39.370ZZ" style="fill: none; stroke-width: 1.73844; stroke: rgb(0, 0, 0); stroke-opacity: 1;"/></g></g></g><g id="shape-78e41ac3-ebc2-807c-8003-c43e95307574"><g class="fills" id="fills-78e41ac3-ebc2-807c-8003-c43e95307574"><path fill="none" stroke-linecap="round" stroke-linejoin="round" stroke-miterlimit="10" rx="0" ry="0" d="M11.711,23.627C11.711,23.627,9.979,22.385,11.202,20.985C11.202,20.985,9.274,19.282,10.839,17.682C10.839,17.682,9.792,14.237,12.648,14.038C12.648,14.038,12.318,10.593,16.098,10.994C16.098,10.994,18.214,9.470,19.783,11.205C19.783,11.205,21.925,9.845,23.033,11.545" style="fill: none;"/></g><g id="strokes-78e41ac3-ebc2-807c-8003-c43e95307574" class="strokes"><g class="stroke-shape"><path stroke-linecap="round" stroke-linejoin="round" stroke-miterlimit="10" rx="0" ry="0" d="M11.711,23.627C11.711,23.627,9.979,22.385,11.202,20.985C11.202,20.985,9.274,19.282,10.839,17.682C10.839,17.682,9.792,14.237,12.648,14.038C12.648,14.038,12.318,10.593,16.098,10.994C16.098,10.994,18.214,9.470,19.783,11.205C19.783,11.205,21.925,9.845,23.033,11.545" style="fill: none; stroke-width: 1.73844; stroke: rgb(0, 0, 0); stroke-opacity: 1;"/></g></g></g><g id="shape-78e41ac3-ebc2-807c-8003-c43e95307575"><g class="fills" id="fills-78e41ac3-ebc2-807c-8003-c43e95307575"><ellipse cy="30.45000000000016" stroke-linejoin="round" transform="matrix(1.000000, 0.000000, 0.000000, 1.000000, 0.000000, 0.000000)" stroke-miterlimit="10" style="fill: none;" ry="19.45416666666665" fill="none" stroke-linecap="round" rx="19.454166666666424" cx="30.450000000000728"/></g><g id="strokes-78e41ac3-ebc2-807c-8003-c43e95307575" class="strokes"><g class="stroke-shape"><ellipse cy="30.45000000000016" stroke-linejoin="round" transform="matrix(1.000000, 0.000000, 0.000000, 1.000000, 0.000000, 0.000000)" stroke-miterlimit="10" style="fill: none; stroke-width: 1.73844; stroke: rgb(0, 0, 0); stroke-opacity: 1;" ry="19.45416666666665" stroke-linecap="round" rx="19.454166666666424" cx="30.450000000000728"/></g></g></g><g id="shape-78e41ac3-ebc2-807c-8003-c43e95307576"><g class="fills" id="fills-78e41ac3-ebc2-807c-8003-c43e95307576"><path fill="none" stroke-linecap="round" stroke-linejoin="round" stroke-miterlimit="10" rx="0" ry="0" d="M49.189,23.627C49.189,23.627,50.921,22.385,49.698,20.985C49.698,20.985,51.626,19.282,50.061,17.682C50.061,17.682,51.108,14.237,48.252,14.038C48.252,14.038,48.582,10.593,44.802,10.994C44.802,10.994,42.686,9.470,41.117,11.205C41.117,11.205,38.975,9.845,37.867,11.545" style="fill: none;"/></g><g id="strokes-78e41ac3-ebc2-807c-8003-c43e95307576" class="strokes"><g class="stroke-shape"><path stroke-linecap="round" stroke-linejoin="round" stroke-miterlimit="10" rx="0" ry="0" d="M49.189,23.627C49.189,23.627,50.921,22.385,49.698,20.985C49.698,20.985,51.626,19.282,50.061,17.682C50.061,17.682,51.108,14.237,48.252,14.038C48.252,14.038,48.582,10.593,44.802,10.994C44.802,10.994,42.686,9.470,41.117,11.205C41.117,11.205,38.975,9.845,37.867,11.545" style="fill: none; stroke-width: 1.73844; stroke: rgb(0, 0, 0); stroke-opacity: 1;"/></g></g></g><g id="shape-78e41ac3-ebc2-807c-8003-c43e95307577"><g class="fills" id="fills-78e41ac3-ebc2-807c-8003-c43e95307577"><ellipse fill="none" stroke-miterlimit="10" rx="2.960416666666788" ry="5.332556249999982" cx="23.489722083333618" cy="26.066891666666777" transform="matrix(1.000000, 0.000000, 0.000000, 1.000000, 0.000000, 0.000000)" style="fill: none;"/></g><g id="strokes-78e41ac3-ebc2-807c-8003-c43e95307577" class="strokes"><g class="stroke-shape"><ellipse stroke-miterlimit="10" rx="2.960416666666788" ry="5.332556249999982" cx="23.489722083333618" cy="26.066891666666777" transform="matrix(1.000000, 0.000000, 0.000000, 1.000000, 0.000000, 0.000000)" style="fill: none; stroke-width: 1.73844; stroke: rgb(0, 0, 0); stroke-opacity: 1;"/></g></g></g><g id="shape-78e41ac3-ebc2-807c-8003-c43e95307578"><g class="fills" id="fills-78e41ac3-ebc2-807c-8003-c43e95307578"><ellipse fill="none" stroke-miterlimit="10" rx="2.960416666666333" ry="5.332556250000039" cx="37.41027791666738" cy="26.069936666666763" transform="matrix(1.000000, 0.000000, 0.000000, 1.000000, 0.000000, 0.000000)" style="fill: none;"/></g><g id="strokes-78e41ac3-ebc2-807c-8003-c43e95307578" class="strokes"><g class="stroke-shape"><ellipse stroke-miterlimit="10" rx="2.960416666666333" ry="5.332556250000039" cx="37.41027791666738" cy="26.069936666666763" transform="matrix(1.000000, 0.000000, 0.000000, 1.000000, 0.000000, 0.000000)" style="fill: none; stroke-width: 1.73844; stroke: rgb(0, 0, 0); stroke-opacity: 1;"/></g></g></g><g id="shape-78e41ac3-ebc2-807c-8003-c43e95307579"><g class="fills" id="fills-78e41ac3-ebc2-807c-8003-c43e95307579"><ellipse rx="2.313438750000387" ry="2.313438749999932" cx="30.450000000000728" cy="32.968807083333445" transform="matrix(1.000000, 0.000000, 0.000000, 1.000000, 0.000000, 0.000000)"/></g></g></g><g id="shape-78e41ac3-ebc2-807c-8003-c43e9530756b" rx="0" ry="0" style="fill: rgb(0, 0, 0);"><g id="shape-78e41ac3-ebc2-807c-8003-c43e9530757a"><g class="fills" id="fills-78e41ac3-ebc2-807c-8003-c43e9530757a"><ellipse fill="none" stroke-miterlimit="10" rx="2.960416666666788" ry="5.332556249999982" cx="23.489722083333618" cy="26.066891666666777" transform="matrix(1.000000, 0.000000, 0.000000, 1.000000, 0.000000, 0.000000)" style="fill: none;"/></g><g id="strokes-78e41ac3-ebc2-807c-8003-c43e9530757a" class="strokes"><g class="stroke-shape"><ellipse stroke-miterlimit="10" rx="2.960416666666788" ry="5.332556249999982" cx="23.489722083333618" cy="26.066891666666777" transform="matrix(1.000000, 0.000000, 0.000000, 1.000000, 0.000000, 0.000000)" style="fill: none; stroke-width: 1.82536; stroke: rgb(146, 211, 245); stroke-opacity: 1;"/></g></g></g><g id="shape-78e41ac3-ebc2-807c-8003-c43e9530757b"><g class="fills" id="fills-78e41ac3-ebc2-807c-8003-c43e9530757b"><ellipse fill="none" stroke-miterlimit="10" rx="2.960416666666333" ry="5.332556250000039" cx="37.41027791666738" cy="26.069936666666763" transform="matrix(1.000000, 0.000000, 0.000000, 1.000000, 0.000000, 0.000000)" style="fill: none;"/></g><g id="strokes-78e41ac3-ebc2-807c-8003-c43e9530757b" class="strokes"><g class="stroke-shape"><ellipse stroke-miterlimit="10" rx="2.960416666666333" ry="5.332556250000039" cx="37.41027791666738" cy="26.069936666666763" transform="matrix(1.000000, 0.000000, 0.000000, 1.000000, 0.000000, 0.000000)" style="fill: none; stroke-width: 1.82536; stroke: rgb(146, 211, 245); stroke-opacity: 1;"/></g></g></g><g id="shape-78e41ac3-ebc2-807c-8003-c43e9530757c"><g class="fills" id="fills-78e41ac3-ebc2-807c-8003-c43e9530757c"><path rx="0" ry="0" d="M25.601,26.065C25.601,28.637,24.485,30.557,23.487,30.557C22.489,30.557,21.372,28.637,21.372,26.065C21.372,23.502,22.489,21.582,23.487,21.582C24.485,21.582,25.601,23.502,25.601,26.065ZZ"/></g></g><g id="shape-78e41ac3-ebc2-807c-8003-c43e9530757d"><g class="fills" id="fills-78e41ac3-ebc2-807c-8003-c43e9530757d"><path rx="0" ry="0" d="M39.524,26.074C39.524,28.637,38.407,30.557,37.409,30.557C36.411,30.557,35.295,28.637,35.295,26.074C35.295,23.502,36.411,21.582,37.409,21.582C38.407,21.582,39.524,23.502,39.524,26.074ZZ"/></g></g><g id="shape-78e41ac3-ebc2-807c-8003-c43e9530757e"><g class="fills" id="fills-78e41ac3-ebc2-807c-8003-c43e9530757e"><ellipse rx="2.313438749999932" ry="2.313438749999932" cx="30.49762041666736" cy="32.968807083333445" transform="matrix(1.000000, 0.000000, 0.000000, 1.000000, 0.000000, 0.000000)" style="fill: rgb(210, 47, 39);"/></g></g></g></g></svg>