<svg xmlns:xlink="http://www.w3.org/1999/xlink" width="50" xmlns="http://www.w3.org/2000/svg" height="50" id="screenshot-34ed21c6-cc6f-8096-8003-4c7146746bba" viewBox="0 0 50 50" style="-webkit-print-color-adjust: exact;" fill="none" version="1.1"><g id="shape-34ed21c6-cc6f-8096-8003-4c7146746bba" width="100" xmlns:xlink="http://www.w3.org/1999/xlink" version="1.1" height="100" rx="0" ry="0" style="fill: rgb(0, 0, 0);"><g id="shape-34ed21c6-cc6f-8096-8003-4c7146746bbc" rx="0" ry="0" style="fill: rgb(0, 0, 0);"><g id="shape-34ed21c6-cc6f-8096-8003-4c7146746bbd"><defs fill="none" rx="0" ry="0" style="-webkit-print-color-adjust: exact; fill: none;"/></g><g id="shape-34ed21c6-cc6f-8096-8003-4c7146746bbe" clip-path="url(#rumext-id-4-frame-clip-3bf388f4-28b5-8046-8003-3bcfac29eae4-rumext-id-1)" rx="0" ry="0" style="fill: rgb(0, 0, 0);"><defs><clipPath class="frame-clip-def frame-clip svg-def" id="rumext-id-4-frame-clip-3bf388f4-28b5-8046-8003-3bcfac29eae4-rumext-id-1" transform="matrix(0.500000, 0.000000, 0.000000, 0.500000, 0.000000, 0.000000)"><rect rx="0" ry="0" x="0" y="0" width="100" height="100.00000000000006" transform="matrix(1.000000, 0.000000, 0.000000, 1.000000, 0.000000, 0.000000)"/></clipPath></defs><g id="shape-34ed21c6-cc6f-8096-8003-4c7146746bbf" class="fills" rx="0" ry="0" style="fill: rgb(0, 0, 0);"><g id="shape-34ed21c6-cc6f-8096-8003-4c7146746bc1"><g class="fills" id="fills-34ed21c6-cc6f-8096-8003-4c7146746bc1"><rect width="50" height="50" class="frame-background" x="0" transform="matrix(1.000000, 0.000000, 0.000000, 1.000000, 0.000000, 0.000000)" style="-webkit-print-color-adjust: exact; fill: none;" ry="0" fill="none" rx="0" y="0"/></g></g></g><g id="shape-34ed21c6-cc6f-8096-8003-4c7146746bc0" class="frame-children" rx="0" ry="0" style="fill: rgb(0, 0, 0);"><g id="shape-34ed21c6-cc6f-8096-8003-4c7146746bc2" ry="0" rx="0" style="fill: rgb(0, 0, 0);"><g id="shape-34ed21c6-cc6f-8096-8003-4c7146746bc3" ry="0" rx="0" style="fill: rgb(0, 0, 0);"><g id="shape-34ed21c6-cc6f-8096-8003-4c7146746bc6" rx="0" ry="0" style="fill: rgb(0, 0, 0);"><g id="shape-34ed21c6-cc6f-8096-8003-4c7146746bca" class="fills" rx="0" ry="0" style="fill: rgb(0, 0, 0);"><g id="shape-34ed21c6-cc6f-8096-8003-4c7146746bcb"><g class="fills" id="fills-34ed21c6-cc6f-8096-8003-4c7146746bcb"><rect rx="0" ry="0" x="15.75" y="6.25" transform="matrix(1.000000, 0.000000, 0.000000, 1.000000, 0.000000, 0.000000)" width="1.25" height="41.25" style="-webkit-print-color-adjust: exact; fill: rgb(179, 157, 52); fill-opacity: 1;"/></g></g></g></g><g id="shape-34ed21c6-cc6f-8096-8003-4c7146746bc7" rx="0" ry="0" style="fill: rgb(0, 0, 0);"><g id="shape-34ed21c6-cc6f-8096-8003-4c7146746bcc" class="fills" rx="0" ry="0" style="fill: rgb(0, 0, 0);"><g id="shape-34ed21c6-cc6f-8096-8003-4c7146746bcd"><g class="fills" id="fills-34ed21c6-cc6f-8096-8003-4c7146746bcd"><rect rx="0" ry="0" x="25" y="12.000000000000227" transform="matrix(0.000000, 1.000000, -1.000000, -0.000000, 58.750000, 7.500000)" width="1.25" height="42.250000000000114" style="-webkit-print-color-adjust: exact; fill: rgb(179, 157, 52); fill-opacity: 1;"/></g></g></g></g><g id="shape-34ed21c6-cc6f-8096-8003-4c7146746bc8" rx="0" ry="0" style="fill: rgb(0, 0, 0);"><g id="shape-34ed21c6-cc6f-8096-8003-4c7146746bce" class="fills" rx="0" ry="0" style="fill: rgb(0, 0, 0);"><g id="shape-34ed21c6-cc6f-8096-8003-4c7146746bcf"><g class="fills" id="fills-34ed21c6-cc6f-8096-8003-4c7146746bcf"><rect rx="0" ry="0" x="21.375" y="-3.3750000000001137" transform="matrix(0.000000, 1.000000, -1.000000, -0.000000, 38.875000, -5.125000)" width="1.25" height="40.50000000000023" style="-webkit-print-color-adjust: exact; fill: rgb(179, 157, 52); fill-opacity: 1;"/></g></g></g></g><g id="shape-34ed21c6-cc6f-8096-8003-4c7146746bc9" rx="0" ry="0" style="fill: rgb(0, 0, 0);"><g id="shape-34ed21c6-cc6f-8096-8003-4c7146746bd0" class="fills" rx="0" ry="0" style="fill: rgb(0, 0, 0);"><g id="shape-34ed21c6-cc6f-8096-8003-4c7146746bd1"><g class="fills" id="fills-34ed21c6-cc6f-8096-8003-4c7146746bd1"><rect rx="0" ry="0" x="32" y="2.5" transform="matrix(1.000000, 0.000000, 0.000000, 1.000000, 0.000000, 0.000000)" width="1.25" height="41.75" style="-webkit-print-color-adjust: exact; fill: rgb(179, 157, 52); fill-opacity: 1;"/></g></g></g></g></g><g id="shape-34ed21c6-cc6f-8096-8003-4c7146746bc4" ry="0" rx="0" style="fill: rgb(0, 0, 0);"><g id="shape-34ed21c6-cc6f-8096-8003-4c7146746bd2" rx="0" ry="0" style="fill: rgb(0, 0, 0);"><g id="shape-34ed21c6-cc6f-8096-8003-4c7146746bd4" class="fills" rx="0" ry="0" style="fill: rgb(0, 0, 0);"><g id="shape-34ed21c6-cc6f-8096-8003-4c7146746bd5"><g class="fills" id="fills-34ed21c6-cc6f-8096-8003-4c7146746bd5"><rect rx="0" ry="0" x="17" y="17.5" transform="matrix(1.000000, 0.000000, 0.000000, 1.000000, 0.000000, 0.000000)" width="15" height="15" style="-webkit-print-color-adjust: exact; fill: rgb(230, 203, 69); fill-opacity: 1;"/></g></g></g></g><g id="shape-34ed21c6-cc6f-8096-8003-4c7146746bd3" ry="0" rx="0" style="fill: rgb(0, 0, 0);"><g id="shape-34ed21c6-cc6f-8096-8003-4c714674a8eb" rx="0" ry="0" style="fill: rgb(0, 0, 0);"><g id="shape-34ed21c6-cc6f-8096-8003-4c714674a8ec" class="fills" rx="0" ry="0" style="fill: rgb(0, 0, 0);"><g id="shape-34ed21c6-cc6f-8096-8003-4c714674a8ed"><g class="fills" id="fills-34ed21c6-cc6f-8096-8003-4c714674a8ed"><path rx="0" ry="0" d="M24.501,24.235L27.182,21.553L27.948,22.319L25.267,25.000L27.948,27.681L27.182,28.447L24.501,25.766L21.820,28.447L21.053,27.681L23.735,25.000L21.053,22.319L21.820,21.553L24.501,24.235ZZZ" style="-webkit-print-color-adjust: exact; fill: rgb(153, 134, 45); fill-opacity: 1;"/></g></g></g></g></g></g><g id="shape-34ed21c6-cc6f-8096-8003-4c7146746bc5" ry="0" rx="0" style="fill: rgb(0, 0, 0);"><g id="shape-34ed21c6-cc6f-8096-8003-4c714674a8ee" rx="0" ry="0" style="fill: rgb(0, 0, 0);"><g id="shape-34ed21c6-cc6f-8096-8003-4c714674a8f0" class="fills" rx="0" ry="0" style="fill: rgb(0, 0, 0);"><g id="shape-34ed21c6-cc6f-8096-8003-4c714674a8f1"><g class="fills" id="fills-34ed21c6-cc6f-8096-8003-4c714674a8f1"><rect rx="0" ry="0" x="33.25" y="17.5" transform="matrix(1.000000, 0.000000, 0.000000, 1.000000, 0.000000, 0.000000)" width="15" height="15" style="-webkit-print-color-adjust: exact; fill: rgb(204, 179, 60); fill-opacity: 1;"/></g></g></g></g><g id="shape-34ed21c6-cc6f-8096-8003-4c714674a8ef" ry="0" rx="0" style="fill: rgb(0, 0, 0);"><g id="shape-34ed21c6-cc6f-8096-8003-4c714674a8f2" rx="0" ry="0" style="fill: rgb(0, 0, 0);"><g id="shape-34ed21c6-cc6f-8096-8003-4c714674a8f3" class="fills" rx="0" ry="0" style="fill: rgb(0, 0, 0);"><g id="shape-34ed21c6-cc6f-8096-8003-4c714674a8f4"><g class="fills" id="fills-34ed21c6-cc6f-8096-8003-4c714674a8f4"><path rx="0" ry="0" d="M40.750,30.417C37.758,30.417,35.334,27.991,35.334,25.000C35.334,22.008,37.758,19.583,40.750,19.583C43.742,19.583,46.167,22.008,46.167,25.000C46.167,27.991,43.742,30.417,40.750,30.417ZZZM40.750,29.333C43.143,29.333,45.083,27.393,45.083,25.000C45.083,22.607,43.143,20.667,40.750,20.667C38.357,20.667,36.417,22.607,36.417,25.000C36.417,27.393,38.357,29.333,40.750,29.333ZZZ" style="-webkit-print-color-adjust: exact; fill: rgb(128, 114, 37); fill-opacity: 1;"/></g></g></g></g></g></g></g></g></g></g></g></svg>