<svg xmlns:xlink="http://www.w3.org/1999/xlink" width="130" xmlns="http://www.w3.org/2000/svg" height="130" id="screenshot-6b7fe676-ba60-8062-8003-d0d4b9459588" viewBox="0 0 130 130" style="-webkit-print-color-adjust: exact;" fill="none" version="1.1"><g id="shape-6b7fe676-ba60-8062-8003-d0d4b9459588" rx="0" ry="0"><g id="shape-6b7fe676-ba60-8062-8003-d0d4b9459589"><g class="fills" id="fills-6b7fe676-ba60-8062-8003-d0d4b9459589"><rect rx="0" ry="0" x="0" y="0" transform="matrix(1.000000, 0.000000, 0.000000, 1.000000, 0.000000, 0.000000)" width="130" height="130" style="fill: rgb(0, 0, 0); fill-opacity: 0;"/></g></g><g id="shape-6b7fe676-ba60-8062-8003-d0d4b945958a" rx="0" ry="0" style="fill: rgb(0, 0, 0);"><g id="shape-6b7fe676-ba60-8062-8003-d0d4b945958c" rx="0" ry="0" style="fill: rgb(0, 0, 0);"/><g id="shape-6b7fe676-ba60-8062-8003-d0d4b945958d" rx="0" ry="0" style="fill: rgb(0, 0, 0);"/><g id="shape-6b7fe676-ba60-8062-8003-d0d4b945958e" rx="0" ry="0" style="fill: rgb(0, 0, 0);"><g id="shape-6b7fe676-ba60-8062-8003-d0d4b9459591"><g class="fills" id="fills-6b7fe676-ba60-8062-8003-d0d4b9459591"><path rx="0" ry="0" d="M46.393,83.967C47.662,94.120,55.889,101.658,65.535,101.507C76.286,101.507,85.433,93.440,85.433,81.581L85.431,81.878L84.700,68.640C84.502,66.050,82.439,64.071,79.991,64.123L68.870,64.123C62.219,60.319,46.600,71.900,46.600,74.170" style="fill: rgb(255, 179, 150); fill-opacity: 1;"/></g></g><g id="shape-6b7fe676-ba60-8062-8003-d0d4b9459592"><g class="fills" id="fills-6b7fe676-ba60-8062-8003-d0d4b9459592"><path rx="0" ry="0" d="M50.445,79.720C48.196,79.540,45.721,77.792,45.854,75.353L45.918,57.901C45.637,55.619,49.828,53.397,51.935,53.092C54.042,52.788,54.855,56.614,55.136,58.896C56.303,52.878,55.428,57.796,54.261,66.734L54.261,74.998C54.394,77.437,52.695,79.540,50.445,79.720ZZ" style="fill: rgb(255, 179, 150); fill-opacity: 1;"/></g></g><g id="shape-6b7fe676-ba60-8062-8003-d0d4b9459593"><g class="fills" id="fills-6b7fe676-ba60-8062-8003-d0d4b9459593"><path rx="0" ry="0" d="M59.728,85.350C57.478,85.170,55.779,83.067,55.912,80.628L55.878,57.288C55.067,55.156,49.639,55.839,59.311,53.402C61.381,52.881,62.845,54.250,63.126,56.532C63.171,56.897,63.588,62.554,63.543,62.920L63.543,80.628C63.676,83.067,61.977,85.170,59.728,85.350ZZ" style="fill: rgb(255, 179, 150); fill-opacity: 1;"/></g></g><g id="shape-6b7fe676-ba60-8062-8003-d0d4b9459594"><g class="fills" id="fills-6b7fe676-ba60-8062-8003-d0d4b9459594"><path rx="0" ry="0" d="M62.355,67.282L62.355,58.653C62.330,56.390,64.945,52.656,67.330,52.351C69.714,52.047,75.499,54.354,75.817,56.636C75.868,57.002,75.838,57.961,75.787,58.326L73.392,65.226" style="fill: rgb(255, 179, 150); fill-opacity: 1;"/></g></g><g id="shape-6b7fe676-ba60-8062-8003-d0d4b9459595"><g class="fills" id="fills-6b7fe676-ba60-8062-8003-d0d4b9459595"><path rx="0" ry="0" d="M73.392,66.924L73.825,32.443C73.825,25.154,84.942,26.082,84.942,32.778L86.187,69.321" style="fill: rgb(255, 179, 150); fill-opacity: 1;"/></g></g></g><g id="shape-6b7fe676-ba60-8062-8003-d0d4b945958f" rx="0" ry="0" style="fill: rgb(0, 0, 0);"/><g id="shape-6b7fe676-ba60-8062-8003-d0d4b9459590" rx="0" ry="0" style="fill: rgb(0, 0, 0);"><g id="shape-6b7fe676-ba60-8062-8003-d0d4b9459596"><g class="fills" id="fills-6b7fe676-ba60-8062-8003-d0d4b9459596"><path fill="none" stroke-linecap="round" stroke-linejoin="round" rx="0" ry="0" d="M51.202,70.782C48.765,70.602,46.925,68.499,47.070,66.060L47.070,57.796C46.765,55.514,48.369,53.417,50.651,53.113C52.933,52.809,55.029,54.412,55.334,56.694C55.382,57.060,55.382,57.430,55.334,57.796L55.334,66.060C55.478,68.499,53.638,70.602,51.202,70.782ZZ" style="fill: none;"/></g><g id="strokes-6b7fe676-ba60-8062-8003-d0d4b9459596" class="strokes"><g class="stroke-shape"><path stroke-linecap="round" stroke-linejoin="round" rx="0" ry="0" d="M51.202,70.782C48.765,70.602,46.925,68.499,47.070,66.060L47.070,57.796C46.765,55.514,48.369,53.417,50.651,53.113C52.933,52.809,55.029,54.412,55.334,56.694C55.382,57.060,55.382,57.430,55.334,57.796L55.334,66.060C55.478,68.499,53.638,70.602,51.202,70.782ZZ" style="fill: none; stroke-width: 2; stroke: rgb(51, 29, 42); stroke-opacity: 1;"/></g></g></g><g id="shape-6b7fe676-ba60-8062-8003-d0d4b9459597"><g class="fills" id="fills-6b7fe676-ba60-8062-8003-d0d4b9459597"><path fill="none" stroke-linecap="round" stroke-miterlimit="10" rx="0" ry="0" d="M85.434,82.793L85.434,70.583C85.242,67.952,83.329,65.226,79.752,65.226" style="fill: none;"/></g><g id="strokes-6b7fe676-ba60-8062-8003-d0d4b9459597" class="strokes"><g class="stroke-shape"><path stroke-linecap="round" stroke-miterlimit="10" rx="0" ry="0" d="M85.434,82.793L85.434,70.583C85.242,67.952,83.329,65.226,79.752,65.226" style="fill: none; stroke-width: 2; stroke: rgb(51, 29, 42); stroke-opacity: 1;"/></g></g></g><g id="shape-6b7fe676-ba60-8062-8003-d0d4b9459598"><g class="fills" id="fills-6b7fe676-ba60-8062-8003-d0d4b9459598"><path fill="none" stroke-linecap="round" stroke-miterlimit="10" rx="0" ry="0" d="M79.752,65.234L69.966,65.234C67.945,65.092,66.202,66.902,66.052,69.298C66.230,71.748,67.877,73.685,69.943,73.875L70.970,74.011C73.110,74.292,74.860,75.569,74.860,76.846L74.860,79.168L74.860,79.679C72.753,80.211,70.802,81.396,69.207,83.114" style="fill: none;"/></g><g id="strokes-6b7fe676-ba60-8062-8003-d0d4b9459598" class="strokes"><g class="stroke-shape"><path stroke-linecap="round" stroke-miterlimit="10" rx="0" ry="0" d="M79.752,65.234L69.966,65.234C67.945,65.092,66.202,66.902,66.052,69.298C66.230,71.748,67.877,73.685,69.943,73.875L70.970,74.011C73.110,74.292,74.860,75.569,74.860,76.846L74.860,79.168L74.860,79.679C72.753,80.211,70.802,81.396,69.207,83.114" style="fill: none; stroke-width: 2; stroke: rgb(51, 29, 42); stroke-opacity: 1;"/></g></g></g><g id="shape-6b7fe676-ba60-8062-8003-d0d4b9459599"><g class="fills" id="fills-6b7fe676-ba60-8062-8003-d0d4b9459599"><path fill="none" stroke-linecap="round" stroke-miterlimit="10" rx="0" ry="0" d="M47.033,85.140C48.282,95.126,56.373,102.539,65.862,102.390C76.437,102.390,85.434,94.457,85.434,82.793L85.433,82.792" style="fill: none;"/></g><g id="strokes-6b7fe676-ba60-8062-8003-d0d4b9459599" class="strokes"><g class="stroke-shape"><path stroke-linecap="round" stroke-miterlimit="10" rx="0" ry="0" d="M47.033,85.140C48.282,95.126,56.373,102.539,65.862,102.390C76.437,102.390,85.434,94.457,85.434,82.793L85.433,82.792" style="fill: none; stroke-width: 2; stroke: rgb(51, 29, 42); stroke-opacity: 1;"/></g></g></g><g id="shape-6b7fe676-ba60-8062-8003-d0d4b945959a"><g class="fills" id="fills-6b7fe676-ba60-8062-8003-d0d4b945959a"><path fill="none" stroke-linecap="round" stroke-miterlimit="10" rx="0" ry="0" d="M74.808,32.384L74.808,50.080" style="fill: none;"/></g><g id="strokes-6b7fe676-ba60-8062-8003-d0d4b945959a" class="strokes"><g class="stroke-shape"><path stroke-linecap="round" stroke-miterlimit="10" rx="0" ry="0" d="M74.808,32.384L74.808,50.080" style="fill: none; stroke-width: 2; stroke: rgb(51, 29, 42); stroke-opacity: 1;"/></g></g></g><g id="shape-6b7fe676-ba60-8062-8003-d0d4b945959b"><g class="fills" id="fills-6b7fe676-ba60-8062-8003-d0d4b945959b"><path fill="none" stroke-linecap="round" stroke-miterlimit="10" rx="0" ry="0" d="M84.696,32.630L84.696,61.929" style="fill: none;"/></g><g id="strokes-6b7fe676-ba60-8062-8003-d0d4b945959b" class="strokes"><g class="stroke-shape"><path stroke-linecap="round" stroke-miterlimit="10" rx="0" ry="0" d="M84.696,32.630L84.696,61.929" style="fill: none; stroke-width: 2; stroke: rgb(51, 29, 42); stroke-opacity: 1;"/></g></g></g><g id="shape-6b7fe676-ba60-8062-8003-d0d4b945959c"><g class="fills" id="fills-6b7fe676-ba60-8062-8003-d0d4b945959c"><path fill="none" stroke-linecap="round" stroke-miterlimit="10" rx="0" ry="0" d="M74.808,32.384C74.808,25.448,84.696,26.259,84.696,32.630" style="fill: none;"/></g><g id="strokes-6b7fe676-ba60-8062-8003-d0d4b945959c" class="strokes"><g class="stroke-shape"><path stroke-linecap="round" stroke-miterlimit="10" rx="0" ry="0" d="M74.808,32.384C74.808,25.448,84.696,26.259,84.696,32.630" style="fill: none; stroke-width: 2; stroke: rgb(51, 29, 42); stroke-opacity: 1;"/></g></g></g><g id="shape-6b7fe676-ba60-8062-8003-d0d4b945959d"><g class="fills" id="fills-6b7fe676-ba60-8062-8003-d0d4b945959d"><path fill="none" stroke-linecap="round" stroke-linejoin="round" rx="0" ry="0" d="M61.162,70.620C57.240,72.069,55.263,68.337,55.407,65.898L55.407,57.634C55.103,55.352,56.706,53.255,58.988,52.951C61.270,52.646,63.367,54.250,63.671,56.532C63.720,56.897,63.720,57.268,63.671,57.634" style="fill: none;"/></g><g id="strokes-6b7fe676-ba60-8062-8003-d0d4b945959d" class="strokes"><g class="stroke-shape"><path stroke-linecap="round" stroke-linejoin="round" rx="0" ry="0" d="M61.162,70.620C57.240,72.069,55.263,68.337,55.407,65.898L55.407,57.634C55.103,55.352,56.706,53.255,58.988,52.951C61.270,52.646,63.367,54.250,63.671,56.532C63.720,56.897,63.720,57.268,63.671,57.634" style="fill: none; stroke-width: 2; stroke: rgb(51, 29, 42); stroke-opacity: 1;"/></g></g></g><g id="shape-6b7fe676-ba60-8062-8003-d0d4b945959e"><g class="fills" id="fills-6b7fe676-ba60-8062-8003-d0d4b945959e"><path fill="none" stroke-linecap="round" stroke-linejoin="round" rx="0" ry="0" d="M63.745,62.787L63.745,56.510C63.441,54.228,65.044,52.131,67.326,51.826C69.608,51.522,71.704,53.125,72.009,55.407C72.058,55.773,72.058,56.144,72.009,56.509L72.045,60.646" style="fill: none;"/></g><g id="strokes-6b7fe676-ba60-8062-8003-d0d4b945959e" class="strokes"><g class="stroke-shape"><path stroke-linecap="round" stroke-linejoin="round" rx="0" ry="0" d="M63.745,62.787L63.745,56.510C63.441,54.228,65.044,52.131,67.326,51.826C69.608,51.522,71.704,53.125,72.009,55.407C72.058,55.773,72.058,56.144,72.009,56.509L72.045,60.646" style="fill: none; stroke-width: 2; stroke: rgb(51, 29, 42); stroke-opacity: 1;"/></g></g></g><g id="shape-6b7fe676-ba60-8062-8003-d0d4b945959f"><g class="fills" id="fills-6b7fe676-ba60-8062-8003-d0d4b945959f"><path fill="none" stroke-linecap="round" stroke-miterlimit="10" rx="0" ry="0" d="M47.033,85.140C46.938,83.356,47.033,74.586,47.033,74.586" style="fill: none;"/></g><g id="strokes-6b7fe676-ba60-8062-8003-d0d4b945959f" class="strokes"><g class="stroke-shape"><path stroke-linecap="round" stroke-miterlimit="10" rx="0" ry="0" d="M47.033,85.140C46.938,83.356,47.033,74.586,47.033,74.586" style="fill: none; stroke-width: 2; stroke: rgb(51, 29, 42); stroke-opacity: 1;"/></g></g></g></g></g></g></svg>