<svg xmlns:xlink="http://www.w3.org/1999/xlink" width="70" xmlns="http://www.w3.org/2000/svg" height="70" id="screenshot-8d2b869f-d092-8074-8003-40e9e1212912" viewBox="0 0 70 70" style="-webkit-print-color-adjust: exact;" fill="none" version="1.1"><g id="shape-8d2b869f-d092-8074-8003-40e9e1212912" rx="0" ry="0" style="fill: rgb(0, 0, 0);"><g id="shape-8d2b869f-d092-8074-8003-40e9e121a80d" rx="0" ry="0" style="fill: rgb(0, 0, 0);"><g id="shape-8d2b869f-d092-8074-8003-40e9e1224760"><g class="fills" id="fills-8d2b869f-d092-8074-8003-40e9e1224760"><path rx="0" ry="0" d="M57.036,47.586C53.538,56.449,44.755,62.209,34.473,62.209C25.609,62.209,15.752,56.634,12.254,47.771L12.132,47.467C11.022,44.686,11.201,41.283,11.201,38.102L14.766,6.630L24.710,16.430C27.552,15.217,30.677,14.545,33.956,14.545L34.990,14.545C38.270,14.545,41.395,15.217,44.236,16.430L55.153,5.658L58.772,38.592C58.772,41.774,58.161,44.812,57.036,47.586Z" style="fill: rgb(244, 170, 65);"/></g></g><g id="shape-8d2b869f-d092-8074-8003-40e9e122ac13"><g class="fills" id="fills-8d2b869f-d092-8074-8003-40e9e122ac13"><path rx="0" ry="0" d="M34.473,62.209C44.787,62.542,54.262,56.482,57.760,47.619L57.868,47.394C58.977,44.614,58.799,40.689,58.799,37.508L55.153,6.630" style="fill: rgb(226, 112, 34);"/></g></g><g id="shape-8d2b869f-d092-8074-8003-40e9e1232334"><g class="fills" id="fills-8d2b869f-d092-8074-8003-40e9e1232334"><path rx="0" ry="0" d="M32.502,52.286C36.658,55.010,41.806,51.767,42.545,48.705L43.597,47.772C43.597,47.772,39.015,51.276,35.851,46.752C36.061,50.647,34.333,51.760,32.502,52.286Z" style="fill: rgb(234, 90, 71);"/></g></g><g id="shape-8d2b869f-d092-8074-8003-40e9e1232335"><g class="fills" id="fills-8d2b869f-d092-8074-8003-40e9e1232335"><path rx="0" ry="0" d="M53.575,32.803C53.575,32.803,40.056,38.519,40.691,39.244C53.628,51.011,54.643,34.443,53.575,32.803ZZ" style="fill: rgb(255, 255, 255);"/></g></g><g id="shape-8d2b869f-d092-8074-8003-40e9e1236b82"><g class="fills" id="fills-8d2b869f-d092-8074-8003-40e9e1236b82"><path rx="0" ry="0" d="M16.425,32.803C16.425,32.803,28.933,39.530,29.309,39.244C16.821,51.628,15.164,35.492,16.425,32.803ZZ" style="fill: rgb(255, 255, 255);"/></g></g></g><g id="shape-8d2b869f-d092-8074-8003-40e9e12386b1" rx="0" ry="0" style="fill: rgb(0, 0, 0);"/><g id="shape-8d2b869f-d092-8074-8003-40e9e12386b2" rx="0" ry="0" style="fill: rgb(0, 0, 0);"/><g id="shape-8d2b869f-d092-8074-8003-40e9e12386b3" rx="0" ry="0" style="fill: rgb(0, 0, 0);"/><g id="shape-8d2b869f-d092-8074-8003-40e9e12386b4" rx="0" ry="0" style="fill: rgb(0, 0, 0);"><g id="shape-8d2b869f-d092-8074-8003-40e9e123e820"><g class="fills" id="fills-8d2b869f-d092-8074-8003-40e9e123e820"><path fill="none" stroke-linejoin="round" stroke-linecap="round" stroke-miterlimit="10" rx="0" ry="0" d="M33.056,45.578L39.044,45.578" style="fill: none;"/></g><g id="strokes-8d2b869f-d092-8074-8003-40e9e123e820" class="strokes"><g class="stroke-shape"><path stroke-linejoin="round" stroke-linecap="round" stroke-miterlimit="10" rx="0" ry="0" d="M33.056,45.578L39.044,45.578" style="fill: none; stroke-width: 2; stroke: rgb(0, 0, 0); stroke-opacity: 1;"/></g></g></g><g id="shape-8d2b869f-d092-8074-8003-40e9e1242fe2"><g class="fills" id="fills-8d2b869f-d092-8074-8003-40e9e1242fe2"><path fill="none" stroke-linecap="round" stroke-linejoin="round" stroke-miterlimit="10" rx="0" ry="0" d="M32.502,52.268C36.658,54.991,41.806,51.749,42.545,48.687L43.597,47.754C43.597,47.754,39.015,51.257,35.851,46.733C36.061,50.628,34.333,51.741,32.502,52.268Z" style="fill: none;"/></g><g id="strokes-8d2b869f-d092-8074-8003-40e9e1242fe2" class="strokes"><g class="stroke-shape"><path stroke-linecap="round" stroke-linejoin="round" stroke-miterlimit="10" rx="0" ry="0" d="M32.502,52.268C36.658,54.991,41.806,51.749,42.545,48.687L43.597,47.754C43.597,47.754,39.015,51.257,35.851,46.733C36.061,50.628,34.333,51.741,32.502,52.268Z" style="fill: none; stroke-width: 2; stroke: rgb(0, 0, 0); stroke-opacity: 1;"/></g></g></g><g id="shape-8d2b869f-d092-8074-8003-40e9e1247b13"><g class="fills" id="fills-8d2b869f-d092-8074-8003-40e9e1247b13"><path fill="none" stroke-linecap="round" stroke-linejoin="round" stroke-miterlimit="10" rx="0" ry="0" d="M53.575,32.785C53.575,32.785,40.056,38.500,40.691,39.226C53.628,50.993,54.643,34.424,53.575,32.785ZZ" style="fill: none;"/></g><g id="strokes-8d2b869f-d092-8074-8003-40e9e1247b13" class="strokes"><g class="stroke-shape"><path stroke-linecap="round" stroke-linejoin="round" stroke-miterlimit="10" rx="0" ry="0" d="M53.575,32.785C53.575,32.785,40.056,38.500,40.691,39.226C53.628,50.993,54.643,34.424,53.575,32.785ZZ" style="fill: none; stroke-width: 2; stroke: rgb(0, 0, 0); stroke-opacity: 1;"/></g></g></g><g id="shape-8d2b869f-d092-8074-8003-40e9e124b5a7"><g class="fills" id="fills-8d2b869f-d092-8074-8003-40e9e124b5a7"><path fill="none" stroke-linejoin="round" stroke-linecap="round" stroke-miterlimit="10" rx="0" ry="0" d="M60.278,52.656L51.178,47.600" style="fill: none;"/></g><g id="strokes-8d2b869f-d092-8074-8003-40e9e124b5a7" class="strokes"><g class="stroke-shape"><path stroke-linejoin="round" stroke-linecap="round" stroke-miterlimit="10" rx="0" ry="0" d="M60.278,52.656L51.178,47.600" style="fill: none; stroke-width: 2; stroke: rgb(0, 0, 0); stroke-opacity: 1;"/></g></g></g><g id="shape-8d2b869f-d092-8074-8003-40e9e124dd8f"><g class="fills" id="fills-8d2b869f-d092-8074-8003-40e9e124dd8f"><path fill="none" stroke-linejoin="round" stroke-linecap="round" stroke-miterlimit="10" rx="0" ry="0" d="M56.233,57.711L47.133,52.656" style="fill: none;"/></g><g id="strokes-8d2b869f-d092-8074-8003-40e9e124dd8f" class="strokes"><g class="stroke-shape"><path stroke-linejoin="round" stroke-linecap="round" stroke-miterlimit="10" rx="0" ry="0" d="M56.233,57.711L47.133,52.656" style="fill: none; stroke-width: 2; stroke: rgb(0, 0, 0); stroke-opacity: 1;"/></g></g></g><g id="shape-8d2b869f-d092-8074-8003-40e9e1255cae"><g class="fills" id="fills-8d2b869f-d092-8074-8003-40e9e1255cae"><path fill="none" stroke-linecap="round" stroke-linejoin="round" stroke-miterlimit="10" rx="0" ry="0" d="M12.922,46.698C11.836,44.009,11.239,41.071,11.239,37.995L14.778,6.145L25.453,16.562C28.231,15.389,31.287,14.739,34.494,14.739L35.506,14.739C38.713,14.739,41.768,15.389,44.548,16.562L55.222,6.145L58.761,37.995C58.761,41.071,58.164,44.009,57.078,46.698" style="fill: none;"/></g><g id="strokes-8d2b869f-d092-8074-8003-40e9e1255cae" class="strokes"><g class="stroke-shape"><path stroke-linecap="round" stroke-linejoin="round" stroke-miterlimit="10" rx="0" ry="0" d="M12.922,46.698C11.836,44.009,11.239,41.071,11.239,37.995L14.778,6.145L25.453,16.562C28.231,15.389,31.287,14.739,34.494,14.739L35.506,14.739C38.713,14.739,41.768,15.389,44.548,16.562L55.222,6.145L58.761,37.995C58.761,41.071,58.164,44.009,57.078,46.698" style="fill: none; stroke-width: 2; stroke: rgb(0, 0, 0); stroke-opacity: 1;"/></g></g></g><g id="shape-8d2b869f-d092-8074-8003-40e9e12584af"><g class="fills" id="fills-8d2b869f-d092-8074-8003-40e9e12584af"><path fill="none" stroke-linecap="round" stroke-linejoin="round" stroke-miterlimit="10" rx="0" ry="0" d="M22.191,57.733C25.761,59.962,29.977,61.250,34.494,61.250L35.506,61.250C40.023,61.250,44.240,59.962,47.809,57.733" style="fill: none;"/></g><g id="strokes-8d2b869f-d092-8074-8003-40e9e12584af" class="strokes"><g class="stroke-shape"><path stroke-linecap="round" stroke-linejoin="round" stroke-miterlimit="10" rx="0" ry="0" d="M22.191,57.733C25.761,59.962,29.977,61.250,34.494,61.250L35.506,61.250C40.023,61.250,44.240,59.962,47.809,57.733" style="fill: none; stroke-width: 2; stroke: rgb(0, 0, 0); stroke-opacity: 1;"/></g></g></g><g id="shape-8d2b869f-d092-8074-8003-40e9e12584b0"><g class="fills" id="fills-8d2b869f-d092-8074-8003-40e9e12584b0"><path fill="none" stroke-linecap="round" stroke-linejoin="round" stroke-miterlimit="10" rx="0" ry="0" d="M16.425,32.785C16.425,32.785,28.933,39.511,29.309,39.226C16.821,51.610,15.164,35.474,16.425,32.785ZZ" style="fill: none;"/></g><g id="strokes-8d2b869f-d092-8074-8003-40e9e12584b0" class="strokes"><g class="stroke-shape"><path stroke-linecap="round" stroke-linejoin="round" stroke-miterlimit="10" rx="0" ry="0" d="M16.425,32.785C16.425,32.785,28.933,39.511,29.309,39.226C16.821,51.610,15.164,35.474,16.425,32.785ZZ" style="fill: none; stroke-width: 2; stroke: rgb(0, 0, 0); stroke-opacity: 1;"/></g></g></g><g id="shape-8d2b869f-d092-8074-8003-40e9e125ceb7"><g class="fills" id="fills-8d2b869f-d092-8074-8003-40e9e125ceb7"><path fill="none" stroke-linejoin="round" stroke-linecap="round" stroke-miterlimit="10" rx="0" ry="0" d="M9.722,52.656L18.822,47.600" style="fill: none;"/></g><g id="strokes-8d2b869f-d092-8074-8003-40e9e125ceb7" class="strokes"><g class="stroke-shape"><path stroke-linejoin="round" stroke-linecap="round" stroke-miterlimit="10" rx="0" ry="0" d="M9.722,52.656L18.822,47.600" style="fill: none; stroke-width: 2; stroke: rgb(0, 0, 0); stroke-opacity: 1;"/></g></g></g><g id="shape-8d2b869f-d092-8074-8003-40e9e126336e"><g class="fills" id="fills-8d2b869f-d092-8074-8003-40e9e126336e"><path fill="none" stroke-linejoin="round" stroke-linecap="round" stroke-miterlimit="10" rx="0" ry="0" d="M13.767,57.711L22.867,52.656" style="fill: none;"/></g><g id="strokes-8d2b869f-d092-8074-8003-40e9e126336e" class="strokes"><g class="stroke-shape"><path stroke-linejoin="round" stroke-linecap="round" stroke-miterlimit="10" rx="0" ry="0" d="M13.767,57.711L22.867,52.656" style="fill: none; stroke-width: 2; stroke: rgb(0, 0, 0); stroke-opacity: 1;"/></g></g></g><g id="shape-8d2b869f-d092-8074-8003-40e9e126336f"><g class="fills" id="fills-8d2b869f-d092-8074-8003-40e9e126336f"><ellipse rx="2.0222222222223536" ry="2.02222222222224" cx="22.866666666667243" cy="37.4889861111111" transform="matrix(1.000000, 0.000000, 0.000000, 1.000000, 0.000000, 0.000000)"/></g></g><g id="shape-8d2b869f-d092-8074-8003-40e9e1263370"><g class="fills" id="fills-8d2b869f-d092-8074-8003-40e9e1263370"><ellipse rx="2.0222222222223536" ry="2.02222222222224" cx="47.13333333333367" cy="37.4889861111111" transform="matrix(1.000000, 0.000000, 0.000000, 1.000000, 0.000000, 0.000000)"/></g></g></g></g></svg>