<svg fill="none" xmlns="http://www.w3.org/2000/svg" style="-webkit-print-color-adjust:exact" viewBox="6693 440.5 250 130"><g mask="url(#b)" clip-path="url(#a)"><defs><clipPath id="a" class="mask-clip-path"><path d="M6693 440.5h250v130h-250"/></clipPath><filter id="c"><feFlood flood-color="#fff" result="FloodResult"/><feComposite in="FloodResult" in2="SourceGraphic" operator="in" result="comp"/></filter><mask y="440.5" data-old-width="250" width="250" maskUnits="userSpaceOnUse" class="mask-shape" data-old-x="6693" id="b" data-old-height="130" x="6693" data-old-y="440.5" height="130"><g filter="url(#c)"><rect rx="0" ry="0" style="fill:#b1b2b5;fill-opacity:1" x="6693" y="440.5" width="250" height="130" class="fills"/></g></mask></defs><g style="fill:#000" xmlns:xlink="http://www.w3.org/1999/xlink"><circle style="fill:#ffeb84" cx="6695.221" cy="442.721" class="fills" r="2.221"/><circle fill="#e685bfff" style="fill:#e685bfff" cx="6715.684" cy="442.721" class="fills" r="2.221"/><circle style="fill:#ffeb84" cx="6736.148" cy="442.721" class="fills" r="2.221"/><circle fill="#e685bfff" style="fill:#e685bfff" cx="6756.611" cy="442.721" class="fills" r="2.221"/><circle style="fill:#ffeb84" cx="6777.074" cy="442.721" class="fills" r="2.221"/><circle fill="#e685bfff" style="fill:#e685bfff" cx="6797.537" cy="442.721" class="fills" r="2.221"/><circle style="fill:#ffeb84" cx="6818" cy="442.721" class="fills" r="2.221"/><circle fill="#e685bfff" style="fill:#e685bfff" cx="6838.463" cy="442.721" class="fills" r="2.221"/><circle style="fill:#ffeb84" cx="6858.926" cy="442.721" class="fills" r="2.221"/><circle fill="#e685bfff" style="fill:#e685bfff" cx="6879.389" cy="442.721" class="fills" r="2.221"/><circle style="fill:#ffeb84" cx="6899.852" cy="442.721" class="fills" r="2.221"/><circle fill="#e685bfff" style="fill:#e685bfff" cx="6920.316" cy="442.721" class="fills" r="2.221"/><circle style="fill:#ffeb84" cx="6940.779" cy="442.721" class="fills" r="2.221"/><circle fill="#e685bfff" style="fill:#e685bfff" cx="6695.221" cy="463.184" class="fills" r="2.221"/><circle style="fill:#ffeb84" cx="6715.684" cy="463.184" class="fills" r="2.221"/><circle fill="#e685bfff" style="fill:#e685bfff" cx="6736.148" cy="463.184" class="fills" r="2.221"/><circle style="fill:#ffeb84" cx="6756.611" cy="463.184" class="fills" r="2.221"/><circle fill="#e685bfff" style="fill:#e685bfff" cx="6777.074" cy="463.184" class="fills" r="2.221"/><circle style="fill:#ffeb84" cx="6797.537" cy="463.184" class="fills" r="2.221"/><circle fill="#e685bfff" style="fill:#e685bfff" cx="6818" cy="463.184" class="fills" r="2.221"/><circle style="fill:#ffeb84" cx="6838.463" cy="463.184" class="fills" r="2.221"/><circle fill="#e685bfff" style="fill:#e685bfff" cx="6858.926" cy="463.184" class="fills" r="2.221"/><circle style="fill:#ffeb84" cx="6879.389" cy="463.184" class="fills" r="2.221"/><circle fill="#e685bfff" style="fill:#e685bfff" cx="6899.852" cy="463.184" class="fills" r="2.221"/><circle style="fill:#ffeb84" cx="6920.316" cy="463.184" class="fills" r="2.221"/><circle fill="#e685bfff" style="fill:#e685bfff" cx="6940.779" cy="463.184" class="fills" r="2.221"/><circle style="fill:#ffeb84" cx="6695.221" cy="483.648" class="fills" r="2.221"/><circle fill="#e685bfff" style="fill:#e685bfff" cx="6715.684" cy="483.648" class="fills" r="2.221"/><circle style="fill:#ffeb84" cx="6736.148" cy="483.648" class="fills" r="2.221"/><circle fill="#e685bfff" style="fill:#e685bfff" cx="6756.611" cy="483.648" class="fills" r="2.221"/><circle style="fill:#ffeb84" cx="6777.074" cy="483.648" class="fills" r="2.221"/><circle fill="#e685bfff" style="fill:#e685bfff" cx="6797.537" cy="483.648" class="fills" r="2.221"/><circle style="fill:#ffeb84" cx="6818" cy="483.648" class="fills" r="2.221"/><circle fill="#e685bfff" style="fill:#e685bfff" cx="6838.463" cy="483.648" class="fills" r="2.221"/><circle style="fill:#ffeb84" cx="6858.926" cy="483.648" class="fills" r="2.221"/><circle fill="#e685bfff" style="fill:#e685bfff" cx="6879.389" cy="483.648" class="fills" r="2.221"/><circle style="fill:#ffeb84" cx="6899.852" cy="483.648" class="fills" r="2.221"/><circle fill="#e685bfff" style="fill:#e685bfff" cx="6920.316" cy="483.648" class="fills" r="2.221"/><circle style="fill:#ffeb84" cx="6940.779" cy="483.648" class="fills" r="2.221"/><circle fill="#e685bfff" style="fill:#e685bfff" cx="6695.221" cy="504.111" class="fills" r="2.221"/><circle style="fill:#ffeb84" cx="6715.684" cy="504.111" class="fills" r="2.221"/><circle fill="#e685bfff" style="fill:#e685bfff" cx="6736.148" cy="504.111" class="fills" r="2.221"/><circle style="fill:#ffeb84" cx="6756.611" cy="504.111" class="fills" r="2.221"/><circle fill="#e685bfff" style="fill:#e685bfff" cx="6777.074" cy="504.111" class="fills" r="2.221"/><circle style="fill:#ffeb84" cx="6797.537" cy="504.111" class="fills" r="2.221"/><circle fill="#e685bfff" style="fill:#e685bfff" cx="6818" cy="504.111" class="fills" r="2.221"/><circle style="fill:#ffeb84" cx="6838.463" cy="504.111" class="fills" r="2.221"/><circle fill="#e685bfff" style="fill:#e685bfff" cx="6858.926" cy="504.111" class="fills" r="2.221"/><circle style="fill:#ffeb84" cx="6879.389" cy="504.111" class="fills" r="2.221"/><circle fill="#e685bfff" style="fill:#e685bfff" cx="6899.852" cy="504.111" class="fills" r="2.221"/><circle style="fill:#ffeb84" cx="6920.316" cy="504.111" class="fills" r="2.221"/><circle fill="#e685bfff" style="fill:#e685bfff" cx="6940.779" cy="504.111" class="fills" r="2.221"/><circle style="fill:#ffeb84" cx="6695.221" cy="524.574" class="fills" r="2.221"/><circle fill="#e685bfff" style="fill:#e685bfff" cx="6715.684" cy="524.574" class="fills" r="2.221"/><circle style="fill:#ffeb84" cx="6736.148" cy="524.574" class="fills" r="2.221"/><circle fill="#e685bfff" style="fill:#e685bfff" cx="6756.611" cy="524.574" class="fills" r="2.221"/><circle style="fill:#ffeb84" cx="6777.074" cy="524.574" class="fills" r="2.221"/><circle fill="#e685bfff" style="fill:#e685bfff" cx="6797.537" cy="524.574" class="fills" r="2.221"/><circle style="fill:#ffeb84" cx="6818" cy="524.574" class="fills" r="2.221"/><circle fill="#e685bfff" style="fill:#e685bfff" cx="6838.463" cy="524.574" class="fills" r="2.221"/><circle style="fill:#ffeb84" cx="6858.926" cy="524.574" class="fills" r="2.221"/><circle fill="#e685bfff" style="fill:#e685bfff" cx="6879.389" cy="524.574" class="fills" r="2.221"/><circle style="fill:#ffeb84" cx="6899.852" cy="524.574" class="fills" r="2.221"/><circle fill="#e685bfff" style="fill:#e685bfff" cx="6920.316" cy="524.574" class="fills" r="2.221"/><circle style="fill:#ffeb84" cx="6940.779" cy="524.574" class="fills" r="2.221"/><circle fill="#e685bfff" style="fill:#e685bfff" cx="6695.221" cy="545.037" class="fills" r="2.221"/><circle style="fill:#ffeb84" cx="6715.684" cy="545.037" class="fills" r="2.221"/><circle fill="#e685bfff" style="fill:#e685bfff" cx="6736.148" cy="545.037" class="fills" r="2.221"/><circle style="fill:#ffeb84" cx="6756.611" cy="545.037" class="fills" r="2.221"/><circle fill="#e685bfff" style="fill:#e685bfff" cx="6777.074" cy="545.037" class="fills" r="2.221"/><circle style="fill:#ffeb84" cx="6797.537" cy="545.037" class="fills" r="2.221"/><circle fill="#e685bfff" style="fill:#e685bfff" cx="6818" cy="545.037" class="fills" r="2.221"/><circle style="fill:#ffeb84" cx="6838.463" cy="545.037" class="fills" r="2.221"/><circle fill="#e685bfff" style="fill:#e685bfff" cx="6858.926" cy="545.037" class="fills" r="2.221"/><circle style="fill:#ffeb84" cx="6879.389" cy="545.037" class="fills" r="2.221"/><circle fill="#e685bfff" style="fill:#e685bfff" cx="6899.852" cy="545.037" class="fills" r="2.221"/><circle style="fill:#ffeb84" cx="6920.316" cy="545.037" class="fills" r="2.221"/><circle fill="#e685bfff" style="fill:#e685bfff" cx="6940.779" cy="545.037" class="fills" r="2.221"/><circle style="fill:#ffeb84" cx="6695.221" cy="565.5" class="fills" r="2.221"/><circle fill="#e685bfff" style="fill:#e685bfff" cx="6715.684" cy="565.5" class="fills" r="2.221"/><circle style="fill:#ffeb84" cx="6736.148" cy="565.5" class="fills" r="2.221"/><circle fill="#e685bfff" style="fill:#e685bfff" cx="6756.611" cy="565.5" class="fills" r="2.221"/><circle style="fill:#ffeb84" cx="6777.074" cy="565.5" class="fills" r="2.221"/><circle fill="#e685bfff" style="fill:#e685bfff" cx="6797.537" cy="565.5" class="fills" r="2.221"/><circle style="fill:#ffeb84" cx="6818" cy="565.5" class="fills" r="2.221"/><circle fill="#e685bfff" style="fill:#e685bfff" cx="6838.463" cy="565.5" class="fills" r="2.221"/><circle style="fill:#ffeb84" cx="6858.926" cy="565.5" class="fills" r="2.221"/><circle fill="#e685bfff" style="fill:#e685bfff" cx="6879.389" cy="565.5" class="fills" r="2.221"/><circle style="fill:#ffeb84" cx="6899.852" cy="565.5" class="fills" r="2.221"/><circle fill="#e685bfff" style="fill:#e685bfff" cx="6920.316" cy="565.5" class="fills" r="2.221"/><circle style="fill:#ffeb84" cx="6940.779" cy="565.5" class="fills" r="2.221"/><circle fill="#e685bfff" style="fill:#e685bfff" cx="6695.221" cy="585.963" class="fills" r="2.221"/><circle style="fill:#ffeb84" cx="6715.684" cy="585.963" class="fills" r="2.221"/><circle fill="#e685bfff" style="fill:#e685bfff" cx="6736.148" cy="585.963" class="fills" r="2.221"/><circle style="fill:#ffeb84" cx="6756.611" cy="585.963" class="fills" r="2.221"/><circle fill="#e685bfff" style="fill:#e685bfff" cx="6777.074" cy="585.963" class="fills" r="2.221"/><circle style="fill:#ffeb84" cx="6797.537" cy="585.963" class="fills" r="2.221"/><circle fill="#e685bfff" style="fill:#e685bfff" cx="6818" cy="585.963" class="fills" r="2.221"/><circle style="fill:#ffeb84" cx="6838.463" cy="585.963" class="fills" r="2.221"/><circle fill="#e685bfff" style="fill:#e685bfff" cx="6858.926" cy="585.963" class="fills" r="2.221"/><circle style="fill:#ffeb84" cx="6879.389" cy="585.963" class="fills" r="2.221"/><circle fill="#e685bfff" style="fill:#e685bfff" cx="6899.852" cy="585.963" class="fills" r="2.221"/><circle style="fill:#ffeb84" cx="6920.316" cy="585.963" class="fills" r="2.221"/><circle fill="#e685bfff" style="fill:#e685bfff" cx="6940.779" cy="585.963" class="fills" r="2.221"/><circle style="fill:#ffeb84" cx="6695.221" cy="606.426" class="fills" r="2.221"/><circle fill="#e685bfff" style="fill:#e685bfff" cx="6715.684" cy="606.426" class="fills" r="2.221"/><circle style="fill:#ffeb84" cx="6736.148" cy="606.426" class="fills" r="2.221"/><circle fill="#e685bfff" style="fill:#e685bfff" cx="6756.611" cy="606.426" class="fills" r="2.221"/><circle style="fill:#ffeb84" cx="6777.074" cy="606.426" class="fills" r="2.221"/><circle fill="#e685bfff" style="fill:#e685bfff" cx="6797.537" cy="606.426" class="fills" r="2.221"/><circle style="fill:#ffeb84" cx="6818" cy="606.426" class="fills" r="2.221"/><circle fill="#e685bfff" style="fill:#e685bfff" cx="6838.463" cy="606.426" class="fills" r="2.221"/><circle style="fill:#ffeb84" cx="6858.926" cy="606.426" class="fills" r="2.221"/><circle fill="#e685bfff" style="fill:#e685bfff" cx="6879.389" cy="606.426" class="fills" r="2.221"/><circle style="fill:#ffeb84" cx="6899.852" cy="606.426" class="fills" r="2.221"/><circle fill="#e685bfff" style="fill:#e685bfff" cx="6920.316" cy="606.426" class="fills" r="2.221"/><circle style="fill:#ffeb84" cx="6940.779" cy="606.426" class="fills" r="2.221"/><circle fill="#e685bfff" style="fill:#e685bfff" cx="6695.221" cy="626.889" class="fills" r="2.221"/><circle style="fill:#ffeb84" cx="6715.684" cy="626.889" class="fills" r="2.221"/><circle fill="#e685bfff" style="fill:#e685bfff" cx="6736.148" cy="626.889" class="fills" r="2.221"/><circle style="fill:#ffeb84" cx="6756.611" cy="626.889" class="fills" r="2.221"/><circle fill="#e685bfff" style="fill:#e685bfff" cx="6777.074" cy="626.889" class="fills" r="2.221"/><circle style="fill:#ffeb84" cx="6797.537" cy="626.889" class="fills" r="2.221"/><circle fill="#e685bfff" style="fill:#e685bfff" cx="6818" cy="626.889" class="fills" r="2.221"/><circle style="fill:#ffeb84" cx="6838.463" cy="626.889" class="fills" r="2.221"/><circle fill="#e685bfff" style="fill:#e685bfff" cx="6858.926" cy="626.889" class="fills" r="2.221"/><circle style="fill:#ffeb84" cx="6879.389" cy="626.889" class="fills" r="2.221"/><circle fill="#e685bfff" style="fill:#e685bfff" cx="6899.852" cy="626.889" class="fills" r="2.221"/><circle style="fill:#ffeb84" cx="6920.316" cy="626.889" class="fills" r="2.221"/><circle fill="#e685bfff" style="fill:#e685bfff" cx="6940.779" cy="626.889" class="fills" r="2.221"/><circle style="fill:#ffeb84" cx="6695.221" cy="647.352" class="fills" r="2.221"/><circle fill="#e685bfff" style="fill:#e685bfff" cx="6715.684" cy="647.352" class="fills" r="2.221"/><circle style="fill:#ffeb84" cx="6736.148" cy="647.352" class="fills" r="2.221"/><circle fill="#e685bfff" style="fill:#e685bfff" cx="6756.611" cy="647.352" class="fills" r="2.221"/><circle style="fill:#ffeb84" cx="6777.074" cy="647.352" class="fills" r="2.221"/><circle fill="#e685bfff" style="fill:#e685bfff" cx="6797.537" cy="647.352" class="fills" r="2.221"/><circle style="fill:#ffeb84" cx="6818" cy="647.352" class="fills" r="2.221"/><circle fill="#e685bfff" style="fill:#e685bfff" cx="6838.463" cy="647.352" class="fills" r="2.221"/><circle style="fill:#ffeb84" cx="6858.926" cy="647.352" class="fills" r="2.221"/><circle fill="#e685bfff" style="fill:#e685bfff" cx="6879.389" cy="647.352" class="fills" r="2.221"/><circle style="fill:#ffeb84" cx="6899.852" cy="647.352" class="fills" r="2.221"/><circle fill="#e685bfff" style="fill:#e685bfff" cx="6920.316" cy="647.352" class="fills" r="2.221"/><circle style="fill:#ffeb84" cx="6940.779" cy="647.352" class="fills" r="2.221"/><circle fill="#e685bfff" style="fill:#e685bfff" cx="6695.221" cy="667.816" class="fills" r="2.221"/><circle style="fill:#ffeb84" cx="6715.684" cy="667.816" class="fills" r="2.221"/><circle fill="#e685bfff" style="fill:#e685bfff" cx="6736.148" cy="667.816" class="fills" r="2.221"/><circle style="fill:#ffeb84" cx="6756.611" cy="667.816" class="fills" r="2.221"/><circle fill="#e685bfff" style="fill:#e685bfff" cx="6777.074" cy="667.816" class="fills" r="2.221"/><circle style="fill:#ffeb84" cx="6797.537" cy="667.816" class="fills" r="2.221"/><circle fill="#e685bfff" style="fill:#e685bfff" cx="6818" cy="667.816" class="fills" r="2.221"/><circle style="fill:#ffeb84" cx="6838.463" cy="667.816" class="fills" r="2.221"/><circle fill="#e685bfff" style="fill:#e685bfff" cx="6858.926" cy="667.816" class="fills" r="2.221"/><circle style="fill:#ffeb84" cx="6879.389" cy="667.816" class="fills" r="2.221"/><circle fill="#e685bfff" style="fill:#e685bfff" cx="6899.852" cy="667.816" class="fills" r="2.221"/><circle style="fill:#ffeb84" cx="6920.316" cy="667.816" class="fills" r="2.221"/><circle fill="#e685bfff" style="fill:#e685bfff" cx="6940.779" cy="667.816" class="fills" r="2.221"/><circle style="fill:#ffeb84" cx="6695.221" cy="688.279" class="fills" r="2.221"/><circle fill="#e685bfff" style="fill:#e685bfff" cx="6715.684" cy="688.279" class="fills" r="2.221"/><circle style="fill:#ffeb84" cx="6736.148" cy="688.279" class="fills" r="2.221"/><circle fill="#e685bfff" style="fill:#e685bfff" cx="6756.611" cy="688.279" class="fills" r="2.221"/><circle style="fill:#ffeb84" cx="6777.074" cy="688.279" class="fills" r="2.221"/><circle fill="#e685bfff" style="fill:#e685bfff" cx="6797.537" cy="688.279" class="fills" r="2.221"/><circle style="fill:#ffeb84" cx="6818" cy="688.279" class="fills" r="2.221"/><circle fill="#e685bfff" style="fill:#e685bfff" cx="6838.463" cy="688.279" class="fills" r="2.221"/><circle style="fill:#ffeb84" cx="6858.926" cy="688.279" class="fills" r="2.221"/><circle fill="#e685bfff" style="fill:#e685bfff" cx="6879.389" cy="688.279" class="fills" r="2.221"/><circle style="fill:#ffeb84" cx="6899.852" cy="688.279" class="fills" r="2.221"/><circle fill="#e685bfff" style="fill:#e685bfff" cx="6920.316" cy="688.279" class="fills" r="2.221"/><circle style="fill:#ffeb84" cx="6940.779" cy="688.279" class="fills" r="2.221"/></g></g></svg>