<svg fill="none" xmlns="http://www.w3.org/2000/svg" style="-webkit-print-color-adjust:exact" viewBox="7063 440.5 250 130"><g mask="url(#b)" clip-path="url(#a)"><defs><clipPath id="a" class="mask-clip-path"><path d="M7063 440.5h250v130h-250"/></clipPath><filter id="c"><feFlood flood-color="#fff" result="FloodResult"/><feComposite in="FloodResult" in2="SourceGraphic" operator="in" result="comp"/></filter><mask y="440.5" data-old-width="250" width="250" maskUnits="userSpaceOnUse" class="mask-shape" data-old-x="7063" id="b" data-old-height="130" x="7063" data-old-y="440.5" height="130"><g filter="url(#c)"><rect rx="0" ry="0" style="fill:#b1b2b5;fill-opacity:1" x="7063" y="440.5" width="250" height="130" class="fills"/></g></mask></defs><g style="fill:#000" xmlns:xlink="http://www.w3.org/1999/xlink"><rect rx="0" ry="0" style="fill:#8fff85" x="7063" y="440.5" width="4.443" height="4.443" class="fills"/><rect fill="#e685bfff" rx="0" ry="0" style="fill:#e685bfff" x="7083.463" y="440.5" width="4.443" height="4.443" class="fills"/><rect rx="0" ry="0" style="fill:#8fff85" x="7103.926" y="440.5" width="4.443" height="4.443" class="fills"/><rect fill="#e685bfff" rx="0" ry="0" style="fill:#e685bfff" x="7124.389" y="440.5" width="4.443" height="4.443" class="fills"/><rect rx="0" ry="0" style="fill:#8fff85" x="7144.852" y="440.5" width="4.443" height="4.443" class="fills"/><rect fill="#e685bfff" rx="0" ry="0" style="fill:#e685bfff" x="7165.316" y="440.5" width="4.443" height="4.443" class="fills"/><rect rx="0" ry="0" style="fill:#8fff85" x="7185.779" y="440.5" width="4.443" height="4.443" class="fills"/><rect fill="#e685bfff" rx="0" ry="0" style="fill:#e685bfff" x="7206.242" y="440.5" width="4.443" height="4.443" class="fills"/><rect rx="0" ry="0" style="fill:#8fff85" x="7226.705" y="440.5" width="4.443" height="4.443" class="fills"/><rect fill="#e685bfff" rx="0" ry="0" style="fill:#e685bfff" x="7247.168" y="440.5" width="4.443" height="4.443" class="fills"/><rect rx="0" ry="0" style="fill:#8fff85" x="7267.631" y="440.5" width="4.443" height="4.443" class="fills"/><rect fill="#e685bfff" rx="0" ry="0" style="fill:#e685bfff" x="7288.094" y="440.5" width="4.443" height="4.443" class="fills"/><rect rx="0" ry="0" style="fill:#8fff85" x="7308.557" y="440.5" width="4.443" height="4.443" class="fills"/><rect fill="#e685bfff" rx="0" ry="0" style="fill:#e685bfff" x="7063" y="460.963" width="4.443" height="4.443" class="fills"/><rect rx="0" ry="0" style="fill:#8fff85" x="7083.463" y="460.963" width="4.443" height="4.443" class="fills"/><rect fill="#e685bfff" rx="0" ry="0" style="fill:#e685bfff" x="7103.926" y="460.963" width="4.443" height="4.443" class="fills"/><rect rx="0" ry="0" style="fill:#8fff85" x="7124.389" y="460.963" width="4.443" height="4.443" class="fills"/><rect fill="#e685bfff" rx="0" ry="0" style="fill:#e685bfff" x="7144.852" y="460.963" width="4.443" height="4.443" class="fills"/><rect rx="0" ry="0" style="fill:#8fff85" x="7165.316" y="460.963" width="4.443" height="4.443" class="fills"/><rect fill="#e685bfff" rx="0" ry="0" style="fill:#e685bfff" x="7185.779" y="460.963" width="4.443" height="4.443" class="fills"/><rect rx="0" ry="0" style="fill:#8fff85" x="7206.242" y="460.963" width="4.443" height="4.443" class="fills"/><rect fill="#e685bfff" rx="0" ry="0" style="fill:#e685bfff" x="7226.705" y="460.963" width="4.443" height="4.443" class="fills"/><rect rx="0" ry="0" style="fill:#8fff85" x="7247.168" y="460.963" width="4.443" height="4.443" class="fills"/><rect fill="#e685bfff" rx="0" ry="0" style="fill:#e685bfff" x="7267.631" y="460.963" width="4.443" height="4.443" class="fills"/><rect rx="0" ry="0" style="fill:#8fff85" x="7288.094" y="460.963" width="4.443" height="4.443" class="fills"/><rect fill="#e685bfff" rx="0" ry="0" style="fill:#e685bfff" x="7308.557" y="460.963" width="4.443" height="4.443" class="fills"/><rect rx="0" ry="0" style="fill:#8fff85" x="7063" y="481.426" width="4.443" height="4.443" class="fills"/><rect fill="#e685bfff" rx="0" ry="0" style="fill:#e685bfff" x="7083.463" y="481.426" width="4.443" height="4.443" class="fills"/><rect rx="0" ry="0" style="fill:#8fff85" x="7103.926" y="481.426" width="4.443" height="4.443" class="fills"/><rect fill="#e685bfff" rx="0" ry="0" style="fill:#e685bfff" x="7124.389" y="481.426" width="4.443" height="4.443" class="fills"/><rect rx="0" ry="0" style="fill:#8fff85" x="7144.852" y="481.426" width="4.443" height="4.443" class="fills"/><rect fill="#e685bfff" rx="0" ry="0" style="fill:#e685bfff" x="7165.316" y="481.426" width="4.443" height="4.443" class="fills"/><rect rx="0" ry="0" style="fill:#8fff85" x="7185.779" y="481.426" width="4.443" height="4.443" class="fills"/><rect fill="#e685bfff" rx="0" ry="0" style="fill:#e685bfff" x="7206.242" y="481.426" width="4.443" height="4.443" class="fills"/><rect rx="0" ry="0" style="fill:#8fff85" x="7226.705" y="481.426" width="4.443" height="4.443" class="fills"/><rect fill="#e685bfff" rx="0" ry="0" style="fill:#e685bfff" x="7247.168" y="481.426" width="4.443" height="4.443" class="fills"/><rect rx="0" ry="0" style="fill:#8fff85" x="7267.631" y="481.426" width="4.443" height="4.443" class="fills"/><rect fill="#e685bfff" rx="0" ry="0" style="fill:#e685bfff" x="7288.094" y="481.426" width="4.443" height="4.443" class="fills"/><rect rx="0" ry="0" style="fill:#8fff85" x="7308.557" y="481.426" width="4.443" height="4.443" class="fills"/><rect fill="#e685bfff" rx="0" ry="0" style="fill:#e685bfff" x="7063" y="501.889" width="4.443" height="4.443" class="fills"/><rect rx="0" ry="0" style="fill:#8fff85" x="7083.463" y="501.889" width="4.443" height="4.443" class="fills"/><rect fill="#e685bfff" rx="0" ry="0" style="fill:#e685bfff" x="7103.926" y="501.889" width="4.443" height="4.443" class="fills"/><rect rx="0" ry="0" style="fill:#8fff85" x="7124.389" y="501.889" width="4.443" height="4.443" class="fills"/><rect fill="#e685bfff" rx="0" ry="0" style="fill:#e685bfff" x="7144.852" y="501.889" width="4.443" height="4.443" class="fills"/><rect rx="0" ry="0" style="fill:#8fff85" x="7165.316" y="501.889" width="4.443" height="4.443" class="fills"/><rect fill="#e685bfff" rx="0" ry="0" style="fill:#e685bfff" x="7185.779" y="501.889" width="4.443" height="4.443" class="fills"/><rect rx="0" ry="0" style="fill:#8fff85" x="7206.242" y="501.889" width="4.443" height="4.443" class="fills"/><rect fill="#e685bfff" rx="0" ry="0" style="fill:#e685bfff" x="7226.705" y="501.889" width="4.443" height="4.443" class="fills"/><rect rx="0" ry="0" style="fill:#8fff85" x="7247.168" y="501.889" width="4.443" height="4.443" class="fills"/><rect fill="#e685bfff" rx="0" ry="0" style="fill:#e685bfff" x="7267.631" y="501.889" width="4.443" height="4.443" class="fills"/><rect rx="0" ry="0" style="fill:#8fff85" x="7288.094" y="501.889" width="4.443" height="4.443" class="fills"/><rect fill="#e685bfff" rx="0" ry="0" style="fill:#e685bfff" x="7308.557" y="501.889" width="4.443" height="4.443" class="fills"/><rect rx="0" ry="0" style="fill:#8fff85" x="7063" y="522.352" width="4.443" height="4.443" class="fills"/><rect fill="#e685bfff" rx="0" ry="0" style="fill:#e685bfff" x="7083.463" y="522.352" width="4.443" height="4.443" class="fills"/><rect rx="0" ry="0" style="fill:#8fff85" x="7103.926" y="522.352" width="4.443" height="4.443" class="fills"/><rect fill="#e685bfff" rx="0" ry="0" style="fill:#e685bfff" x="7124.389" y="522.352" width="4.443" height="4.443" class="fills"/><rect rx="0" ry="0" style="fill:#8fff85" x="7144.852" y="522.352" width="4.443" height="4.443" class="fills"/><rect fill="#e685bfff" rx="0" ry="0" style="fill:#e685bfff" x="7165.316" y="522.352" width="4.443" height="4.443" class="fills"/><rect rx="0" ry="0" style="fill:#8fff85" x="7185.779" y="522.352" width="4.443" height="4.443" class="fills"/><rect fill="#e685bfff" rx="0" ry="0" style="fill:#e685bfff" x="7206.242" y="522.352" width="4.443" height="4.443" class="fills"/><rect rx="0" ry="0" style="fill:#8fff85" x="7226.705" y="522.352" width="4.443" height="4.443" class="fills"/><rect fill="#e685bfff" rx="0" ry="0" style="fill:#e685bfff" x="7247.168" y="522.352" width="4.443" height="4.443" class="fills"/><rect rx="0" ry="0" style="fill:#8fff85" x="7267.631" y="522.352" width="4.443" height="4.443" class="fills"/><rect fill="#e685bfff" rx="0" ry="0" style="fill:#e685bfff" x="7288.094" y="522.352" width="4.443" height="4.443" class="fills"/><rect rx="0" ry="0" style="fill:#8fff85" x="7308.557" y="522.352" width="4.443" height="4.443" class="fills"/><rect fill="#e685bfff" rx="0" ry="0" style="fill:#e685bfff" x="7063" y="542.816" width="4.443" height="4.443" class="fills"/><rect rx="0" ry="0" style="fill:#8fff85" x="7083.463" y="542.816" width="4.443" height="4.443" class="fills"/><rect fill="#e685bfff" rx="0" ry="0" style="fill:#e685bfff" x="7103.926" y="542.816" width="4.443" height="4.443" class="fills"/><rect rx="0" ry="0" style="fill:#8fff85" x="7124.389" y="542.816" width="4.443" height="4.443" class="fills"/><rect fill="#e685bfff" rx="0" ry="0" style="fill:#e685bfff" x="7144.852" y="542.816" width="4.443" height="4.443" class="fills"/><rect rx="0" ry="0" style="fill:#8fff85" x="7165.316" y="542.816" width="4.443" height="4.443" class="fills"/><rect fill="#e685bfff" rx="0" ry="0" style="fill:#e685bfff" x="7185.779" y="542.816" width="4.443" height="4.443" class="fills"/><rect rx="0" ry="0" style="fill:#8fff85" x="7206.242" y="542.816" width="4.443" height="4.443" class="fills"/><rect fill="#e685bfff" rx="0" ry="0" style="fill:#e685bfff" x="7226.705" y="542.816" width="4.443" height="4.443" class="fills"/><rect rx="0" ry="0" style="fill:#8fff85" x="7247.168" y="542.816" width="4.443" height="4.443" class="fills"/><rect fill="#e685bfff" rx="0" ry="0" style="fill:#e685bfff" x="7267.631" y="542.816" width="4.443" height="4.443" class="fills"/><rect rx="0" ry="0" style="fill:#8fff85" x="7288.094" y="542.816" width="4.443" height="4.443" class="fills"/><rect fill="#e685bfff" rx="0" ry="0" style="fill:#e685bfff" x="7308.557" y="542.816" width="4.443" height="4.443" class="fills"/><rect rx="0" ry="0" style="fill:#8fff85" x="7063" y="563.279" width="4.443" height="4.443" class="fills"/><rect fill="#e685bfff" rx="0" ry="0" style="fill:#e685bfff" x="7083.463" y="563.279" width="4.443" height="4.443" class="fills"/><rect rx="0" ry="0" style="fill:#8fff85" x="7103.926" y="563.279" width="4.443" height="4.443" class="fills"/><rect fill="#e685bfff" rx="0" ry="0" style="fill:#e685bfff" x="7124.389" y="563.279" width="4.443" height="4.443" class="fills"/><rect rx="0" ry="0" style="fill:#8fff85" x="7144.852" y="563.279" width="4.443" height="4.443" class="fills"/><rect fill="#e685bfff" rx="0" ry="0" style="fill:#e685bfff" x="7165.316" y="563.279" width="4.443" height="4.443" class="fills"/><rect rx="0" ry="0" style="fill:#8fff85" x="7185.779" y="563.279" width="4.443" height="4.443" class="fills"/><rect fill="#e685bfff" rx="0" ry="0" style="fill:#e685bfff" x="7206.242" y="563.279" width="4.443" height="4.443" class="fills"/><rect rx="0" ry="0" style="fill:#8fff85" x="7226.705" y="563.279" width="4.443" height="4.443" class="fills"/><rect fill="#e685bfff" rx="0" ry="0" style="fill:#e685bfff" x="7247.168" y="563.279" width="4.443" height="4.443" class="fills"/><rect rx="0" ry="0" style="fill:#8fff85" x="7267.631" y="563.279" width="4.443" height="4.443" class="fills"/><rect fill="#e685bfff" rx="0" ry="0" style="fill:#e685bfff" x="7288.094" y="563.279" width="4.443" height="4.443" class="fills"/><rect rx="0" ry="0" style="fill:#8fff85" x="7308.557" y="563.279" width="4.443" height="4.443" class="fills"/><rect fill="#e685bfff" rx="0" ry="0" style="fill:#e685bfff" x="7063" y="583.742" width="4.443" height="4.443" class="fills"/><rect rx="0" ry="0" style="fill:#8fff85" x="7083.463" y="583.742" width="4.443" height="4.443" class="fills"/><rect fill="#e685bfff" rx="0" ry="0" style="fill:#e685bfff" x="7103.926" y="583.742" width="4.443" height="4.443" class="fills"/><rect rx="0" ry="0" style="fill:#8fff85" x="7124.389" y="583.742" width="4.443" height="4.443" class="fills"/><rect fill="#e685bfff" rx="0" ry="0" style="fill:#e685bfff" x="7144.852" y="583.742" width="4.443" height="4.443" class="fills"/><rect rx="0" ry="0" style="fill:#8fff85" x="7165.316" y="583.742" width="4.443" height="4.443" class="fills"/><rect fill="#e685bfff" rx="0" ry="0" style="fill:#e685bfff" x="7185.779" y="583.742" width="4.443" height="4.443" class="fills"/><rect rx="0" ry="0" style="fill:#8fff85" x="7206.242" y="583.742" width="4.443" height="4.443" class="fills"/><rect fill="#e685bfff" rx="0" ry="0" style="fill:#e685bfff" x="7226.705" y="583.742" width="4.443" height="4.443" class="fills"/><rect rx="0" ry="0" style="fill:#8fff85" x="7247.168" y="583.742" width="4.443" height="4.443" class="fills"/><rect fill="#e685bfff" rx="0" ry="0" style="fill:#e685bfff" x="7267.631" y="583.742" width="4.443" height="4.443" class="fills"/><rect rx="0" ry="0" style="fill:#8fff85" x="7288.094" y="583.742" width="4.443" height="4.443" class="fills"/><rect fill="#e685bfff" rx="0" ry="0" style="fill:#e685bfff" x="7308.557" y="583.742" width="4.443" height="4.443" class="fills"/><rect rx="0" ry="0" style="fill:#8fff85" x="7063" y="604.205" width="4.443" height="4.443" class="fills"/><rect fill="#e685bfff" rx="0" ry="0" style="fill:#e685bfff" x="7083.463" y="604.205" width="4.443" height="4.443" class="fills"/><rect rx="0" ry="0" style="fill:#8fff85" x="7103.926" y="604.205" width="4.443" height="4.443" class="fills"/><rect fill="#e685bfff" rx="0" ry="0" style="fill:#e685bfff" x="7124.389" y="604.205" width="4.443" height="4.443" class="fills"/><rect rx="0" ry="0" style="fill:#8fff85" x="7144.852" y="604.205" width="4.443" height="4.443" class="fills"/><rect fill="#e685bfff" rx="0" ry="0" style="fill:#e685bfff" x="7165.316" y="604.205" width="4.443" height="4.443" class="fills"/><rect rx="0" ry="0" style="fill:#8fff85" x="7185.779" y="604.205" width="4.443" height="4.443" class="fills"/><rect fill="#e685bfff" rx="0" ry="0" style="fill:#e685bfff" x="7206.242" y="604.205" width="4.443" height="4.443" class="fills"/><rect rx="0" ry="0" style="fill:#8fff85" x="7226.705" y="604.205" width="4.443" height="4.443" class="fills"/><rect fill="#e685bfff" rx="0" ry="0" style="fill:#e685bfff" x="7247.168" y="604.205" width="4.443" height="4.443" class="fills"/><rect rx="0" ry="0" style="fill:#8fff85" x="7267.631" y="604.205" width="4.443" height="4.443" class="fills"/><rect fill="#e685bfff" rx="0" ry="0" style="fill:#e685bfff" x="7288.094" y="604.205" width="4.443" height="4.443" class="fills"/><rect rx="0" ry="0" style="fill:#8fff85" x="7308.557" y="604.205" width="4.443" height="4.443" class="fills"/><rect fill="#e685bfff" rx="0" ry="0" style="fill:#e685bfff" x="7063" y="624.668" width="4.443" height="4.443" class="fills"/><rect rx="0" ry="0" style="fill:#8fff85" x="7083.463" y="624.668" width="4.443" height="4.443" class="fills"/><rect fill="#e685bfff" rx="0" ry="0" style="fill:#e685bfff" x="7103.926" y="624.668" width="4.443" height="4.443" class="fills"/><rect rx="0" ry="0" style="fill:#8fff85" x="7124.389" y="624.668" width="4.443" height="4.443" class="fills"/><rect fill="#e685bfff" rx="0" ry="0" style="fill:#e685bfff" x="7144.852" y="624.668" width="4.443" height="4.443" class="fills"/><rect rx="0" ry="0" style="fill:#8fff85" x="7165.316" y="624.668" width="4.443" height="4.443" class="fills"/><rect fill="#e685bfff" rx="0" ry="0" style="fill:#e685bfff" x="7185.779" y="624.668" width="4.443" height="4.443" class="fills"/><rect rx="0" ry="0" style="fill:#8fff85" x="7206.242" y="624.668" width="4.443" height="4.443" class="fills"/><rect fill="#e685bfff" rx="0" ry="0" style="fill:#e685bfff" x="7226.705" y="624.668" width="4.443" height="4.443" class="fills"/><rect rx="0" ry="0" style="fill:#8fff85" x="7247.168" y="624.668" width="4.443" height="4.443" class="fills"/><rect fill="#e685bfff" rx="0" ry="0" style="fill:#e685bfff" x="7267.631" y="624.668" width="4.443" height="4.443" class="fills"/><rect rx="0" ry="0" style="fill:#8fff85" x="7288.094" y="624.668" width="4.443" height="4.443" class="fills"/><rect fill="#e685bfff" rx="0" ry="0" style="fill:#e685bfff" x="7308.557" y="624.668" width="4.443" height="4.443" class="fills"/><rect rx="0" ry="0" style="fill:#8fff85" x="7063" y="645.131" width="4.443" height="4.443" class="fills"/><rect fill="#e685bfff" rx="0" ry="0" style="fill:#e685bfff" x="7083.463" y="645.131" width="4.443" height="4.443" class="fills"/><rect rx="0" ry="0" style="fill:#8fff85" x="7103.926" y="645.131" width="4.443" height="4.443" class="fills"/><rect fill="#e685bfff" rx="0" ry="0" style="fill:#e685bfff" x="7124.389" y="645.131" width="4.443" height="4.443" class="fills"/><rect rx="0" ry="0" style="fill:#8fff85" x="7144.852" y="645.131" width="4.443" height="4.443" class="fills"/><rect fill="#e685bfff" rx="0" ry="0" style="fill:#e685bfff" x="7165.316" y="645.131" width="4.443" height="4.443" class="fills"/><rect rx="0" ry="0" style="fill:#8fff85" x="7185.779" y="645.131" width="4.443" height="4.443" class="fills"/><rect fill="#e685bfff" rx="0" ry="0" style="fill:#e685bfff" x="7206.242" y="645.131" width="4.443" height="4.443" class="fills"/><rect rx="0" ry="0" style="fill:#8fff85" x="7226.705" y="645.131" width="4.443" height="4.443" class="fills"/><rect fill="#e685bfff" rx="0" ry="0" style="fill:#e685bfff" x="7247.168" y="645.131" width="4.443" height="4.443" class="fills"/><rect rx="0" ry="0" style="fill:#8fff85" x="7267.631" y="645.131" width="4.443" height="4.443" class="fills"/><rect fill="#e685bfff" rx="0" ry="0" style="fill:#e685bfff" x="7288.094" y="645.131" width="4.443" height="4.443" class="fills"/><rect rx="0" ry="0" style="fill:#8fff85" x="7308.557" y="645.131" width="4.443" height="4.443" class="fills"/><rect fill="#e685bfff" rx="0" ry="0" style="fill:#e685bfff" x="7063" y="665.594" width="4.443" height="4.443" class="fills"/><rect rx="0" ry="0" style="fill:#8fff85" x="7083.463" y="665.594" width="4.443" height="4.443" class="fills"/><rect fill="#e685bfff" rx="0" ry="0" style="fill:#e685bfff" x="7103.926" y="665.594" width="4.443" height="4.443" class="fills"/><rect rx="0" ry="0" style="fill:#8fff85" x="7124.389" y="665.594" width="4.443" height="4.443" class="fills"/><rect fill="#e685bfff" rx="0" ry="0" style="fill:#e685bfff" x="7144.852" y="665.594" width="4.443" height="4.443" class="fills"/><rect rx="0" ry="0" style="fill:#8fff85" x="7165.316" y="665.594" width="4.443" height="4.443" class="fills"/><rect fill="#e685bfff" rx="0" ry="0" style="fill:#e685bfff" x="7185.779" y="665.594" width="4.443" height="4.443" class="fills"/><rect rx="0" ry="0" style="fill:#8fff85" x="7206.242" y="665.594" width="4.443" height="4.443" class="fills"/><rect fill="#e685bfff" rx="0" ry="0" style="fill:#e685bfff" x="7226.705" y="665.594" width="4.443" height="4.443" class="fills"/><rect rx="0" ry="0" style="fill:#8fff85" x="7247.168" y="665.594" width="4.443" height="4.443" class="fills"/><rect fill="#e685bfff" rx="0" ry="0" style="fill:#e685bfff" x="7267.631" y="665.594" width="4.443" height="4.443" class="fills"/><rect rx="0" ry="0" style="fill:#8fff85" x="7288.094" y="665.594" width="4.443" height="4.443" class="fills"/><rect fill="#e685bfff" rx="0" ry="0" style="fill:#e685bfff" x="7308.557" y="665.594" width="4.443" height="4.443" class="fills"/><rect rx="0" ry="0" style="fill:#8fff85" x="7063" y="686.057" width="4.443" height="4.443" class="fills"/><rect fill="#e685bfff" rx="0" ry="0" style="fill:#e685bfff" x="7083.463" y="686.057" width="4.443" height="4.443" class="fills"/><rect rx="0" ry="0" style="fill:#8fff85" x="7103.926" y="686.057" width="4.443" height="4.443" class="fills"/><rect fill="#e685bfff" rx="0" ry="0" style="fill:#e685bfff" x="7124.389" y="686.057" width="4.443" height="4.443" class="fills"/><rect rx="0" ry="0" style="fill:#8fff85" x="7144.852" y="686.057" width="4.443" height="4.443" class="fills"/><rect fill="#e685bfff" rx="0" ry="0" style="fill:#e685bfff" x="7165.316" y="686.057" width="4.443" height="4.443" class="fills"/><rect rx="0" ry="0" style="fill:#8fff85" x="7185.779" y="686.057" width="4.443" height="4.443" class="fills"/><rect fill="#e685bfff" rx="0" ry="0" style="fill:#e685bfff" x="7206.242" y="686.057" width="4.443" height="4.443" class="fills"/><rect rx="0" ry="0" style="fill:#8fff85" x="7226.705" y="686.057" width="4.443" height="4.443" class="fills"/><rect fill="#e685bfff" rx="0" ry="0" style="fill:#e685bfff" x="7247.168" y="686.057" width="4.443" height="4.443" class="fills"/><rect rx="0" ry="0" style="fill:#8fff85" x="7267.631" y="686.057" width="4.443" height="4.443" class="fills"/><rect fill="#e685bfff" rx="0" ry="0" style="fill:#e685bfff" x="7288.094" y="686.057" width="4.443" height="4.443" class="fills"/><rect rx="0" ry="0" style="fill:#8fff85" x="7308.557" y="686.057" width="4.443" height="4.443" class="fills"/></g></g></svg>