<svg xmlns:xlink="http://www.w3.org/1999/xlink" width="30" xmlns="http://www.w3.org/2000/svg" height="30" id="screenshot-64c5bd9c-76ce-80cd-8003-409b84945978" viewBox="0 0 30 30" style="-webkit-print-color-adjust: exact;" fill="none" version="1.1"><g id="shape-64c5bd9c-76ce-80cd-8003-409b84945978" rx="0" ry="0" style="fill: rgb(0, 0, 0);"><g id="shape-64c5bd9c-76ce-80cd-8003-409b84945998"><g class="fills" id="fills-64c5bd9c-76ce-80cd-8003-409b84945998"><rect width="30" height="30" x="0" transform="matrix(1.000000, 0.000000, 0.000000, -1.000000, -0.000000, 30.000000)" style="fill: none;" ry="0" fill="none" rx="0" y="0"/></g></g><g id="shape-64c5bd9c-76ce-80cd-8003-409b84945999"><g class="fills" id="fills-64c5bd9c-76ce-80cd-8003-409b84945999"><path rx="0" ry="0" d="M2.500,18.750L6.250,18.750L6.250,3.750L2.500,3.750C1.810,3.750,1.250,4.310,1.250,5.000L1.250,17.500C1.250,18.190,1.810,18.750,2.500,18.750ZZM9.116,20.366L17.117,28.367C17.337,28.587,17.685,28.611,17.934,28.425L18.999,27.626C19.605,27.171,19.878,26.397,19.691,25.663L18.250,20.000L26.250,20.000C27.631,20.000,28.750,18.881,28.750,17.500L28.750,14.870C28.750,14.543,28.686,14.220,28.562,13.918L24.694,4.524C24.501,4.056,24.044,3.750,23.538,3.750L10.000,3.750C9.310,3.750,8.750,4.310,8.750,5.000L8.750,19.482C8.750,19.814,8.882,20.132,9.116,20.366ZZ" style="fill: rgb(255, 179, 150); fill-opacity: 1;"/></g></g></g></svg>