<svg xmlns:xlink="http://www.w3.org/1999/xlink" width="30" xmlns="http://www.w3.org/2000/svg" height="30" id="screenshot-4a087260-c410-80b4-8003-40dae4eaa43b" viewBox="0 0 30 30" style="-webkit-print-color-adjust: exact;" fill="none" version="1.1"><g id="shape-4a087260-c410-80b4-8003-40dae4eaa43b" rx="0" ry="0" style="fill: rgb(0, 0, 0);"><g id="shape-4a087260-c410-80b4-8003-40dae4eaa43d"><g class="fills" id="fills-4a087260-c410-80b4-8003-40dae4eaa43d"><path rx="0" ry="0" d="M2.500,11.250L6.250,11.250L6.250,26.250L2.500,26.250C1.810,26.250,1.250,25.690,1.250,25.000L1.250,12.500C1.250,11.810,1.810,11.250,2.500,11.250ZZM9.116,9.634L17.117,1.633C17.337,1.413,17.685,1.389,17.934,1.575L18.999,2.374C19.605,2.829,19.878,3.603,19.691,4.337L18.250,10.000L26.250,10.000C27.631,10.000,28.750,11.119,28.750,12.500L28.750,15.130C28.750,15.457,28.686,15.780,28.562,16.082L24.694,25.476C24.501,25.944,24.044,26.250,23.538,26.250L10.000,26.250C9.310,26.250,8.750,25.690,8.750,25.000L8.750,10.518C8.750,10.186,8.882,9.868,9.116,9.634ZZ" style="fill: rgb(155, 255, 150); fill-opacity: 1;"/></g></g></g></svg>