<svg xmlns:xlink="http://www.w3.org/1999/xlink" width="18" xmlns="http://www.w3.org/2000/svg" height="18" id="screenshot-64c5bd9c-76ce-80cd-8003-409b8494597a" viewBox="0 0 18 18" style="-webkit-print-color-adjust: exact;" fill="none" version="1.1"><g id="shape-64c5bd9c-76ce-80cd-8003-409b8494597a" rx="0" ry="0" style="fill: rgb(0, 0, 0);"><g id="shape-64c5bd9c-76ce-80cd-8003-409b8494599b"><g class="fills" id="fills-64c5bd9c-76ce-80cd-8003-409b8494599b"><path rx="0" ry="0" d="M3.001,15.000L3.001,10.500C3.001,7.186,5.687,4.500,9.001,4.500C12.314,4.500,15.001,7.186,15.001,10.500L15.001,15.000L15.751,15.000L15.751,16.500L2.251,16.500L2.251,15.000L3.001,15.000ZZM4.501,10.500L6.001,10.500C6.001,8.843,7.344,7.500,9.001,7.500L9.001,6.000C6.515,6.000,4.501,8.015,4.501,10.500ZZM8.251,1.500L9.751,1.500L9.751,3.750L8.251,3.750L8.251,1.500ZZM14.834,3.606L15.895,4.666L14.304,6.257L13.243,5.197L14.834,3.606ZZM2.106,4.666L3.167,3.606L4.758,5.197L3.697,6.257L2.106,4.666ZZ" style="fill: rgb(255, 179, 150); fill-opacity: 1;"/></g></g></g></svg>